<?xml version="1.0" encoding="utf-8" standalone="no"?>
<!DOCTYPE svg PUBLIC "-//W3C//DTD SVG 1.1//EN"
  "http://www.w3.org/Graphics/SVG/1.1/DTD/svg11.dtd">
<svg xmlns:xlink="http://www.w3.org/1999/xlink" width="460.8pt" height="345.6pt" viewBox="0 0 460.8 345.6" xmlns="http://www.w3.org/2000/svg" version="1.1">
 <metadata>
  <rdf:RDF xmlns:dc="http://purl.org/dc/elements/1.1/" xmlns:cc="http://creativecommons.org/ns#" xmlns:rdf="http://www.w3.org/1999/02/22-rdf-syntax-ns#">
   <cc:Work>
    <dc:type rdf:resource="http://purl.org/dc/dcmitype/StillImage"/>
    <dc:date>2023-01-14T18:30:20.779233</dc:date>
    <dc:format>image/svg+xml</dc:format>
    <dc:creator>
     <cc:Agent>
      <dc:title>Matplotlib v3.5.2, https://matplotlib.org/</dc:title>
     </cc:Agent>
    </dc:creator>
   </cc:Work>
  </rdf:RDF>
 </metadata>
 <defs>
  <style type="text/css">*{stroke-linejoin: round; stroke-linecap: butt}</style>
 </defs>
 <g id="figure_1">
  <g id="patch_1">
   <path d="M 0 345.6 
L 460.8 345.6 
L 460.8 0 
L 0 0 
z
" style="fill: #ffffff"/>
  </g>
  <g id="axes_1">
   <g id="patch_2">
    <path d="M 55.528125 304.69375 
L 450 304.69375 
L 450 25.918125 
L 55.528125 25.918125 
z
" style="fill: #ffffff"/>
   </g>
   <g id="matplotlib.axis_1">
    <g id="xtick_1">
     <g id="line2d_1">
      <path d="M 73.458665 304.69375 
L 73.458665 25.918125 
" clip-path="url(#p3934941737)" style="fill: none; stroke: #b0b0b0; stroke-opacity: 0.75; stroke-linecap: square"/>
     </g>
     <g id="line2d_2">
      <defs>
       <path id="mefe3973574" d="M 0 3.25 
L 0 -3.25 
" style="stroke: #000000; stroke-width: 0.8"/>
      </defs>
      <g>
       <use xlink:href="#mefe3973574" x="73.458665" y="304.69375" style="stroke: #000000; stroke-width: 0.8"/>
      </g>
     </g>
     <g id="text_1">
      <!-- $\mathdefault{0}$ -->
      <g transform="translate(70.258665 319.042187)scale(0.1 -0.1)">
       <defs>
        <path id="DejaVuSans-30" d="M 2034 4250 
Q 1547 4250 1301 3770 
Q 1056 3291 1056 2328 
Q 1056 1369 1301 889 
Q 1547 409 2034 409 
Q 2525 409 2770 889 
Q 3016 1369 3016 2328 
Q 3016 3291 2770 3770 
Q 2525 4250 2034 4250 
z
M 2034 4750 
Q 2819 4750 3233 4129 
Q 3647 3509 3647 2328 
Q 3647 1150 3233 529 
Q 2819 -91 2034 -91 
Q 1250 -91 836 529 
Q 422 1150 422 2328 
Q 422 3509 836 4129 
Q 1250 4750 2034 4750 
z
" transform="scale(0.015625)"/>
       </defs>
       <use xlink:href="#DejaVuSans-30" transform="translate(0 0.78125)"/>
      </g>
     </g>
    </g>
    <g id="xtick_2">
     <g id="line2d_3">
      <path d="M 145.180824 304.69375 
L 145.180824 25.918125 
" clip-path="url(#p3934941737)" style="fill: none; stroke: #b0b0b0; stroke-opacity: 0.75; stroke-linecap: square"/>
     </g>
     <g id="line2d_4">
      <g>
       <use xlink:href="#mefe3973574" x="145.180824" y="304.69375" style="stroke: #000000; stroke-width: 0.8"/>
      </g>
     </g>
     <g id="text_2">
      <!-- $\mathdefault{10}$ -->
      <g transform="translate(138.780824 319.042187)scale(0.1 -0.1)">
       <defs>
        <path id="DejaVuSans-31" d="M 794 531 
L 1825 531 
L 1825 4091 
L 703 3866 
L 703 4441 
L 1819 4666 
L 2450 4666 
L 2450 531 
L 3481 531 
L 3481 0 
L 794 0 
L 794 531 
z
" transform="scale(0.015625)"/>
       </defs>
       <use xlink:href="#DejaVuSans-31" transform="translate(0 0.78125)"/>
       <use xlink:href="#DejaVuSans-30" transform="translate(63.623047 0.78125)"/>
      </g>
     </g>
    </g>
    <g id="xtick_3">
     <g id="line2d_5">
      <path d="M 216.902983 304.69375 
L 216.902983 25.918125 
" clip-path="url(#p3934941737)" style="fill: none; stroke: #b0b0b0; stroke-opacity: 0.75; stroke-linecap: square"/>
     </g>
     <g id="line2d_6">
      <g>
       <use xlink:href="#mefe3973574" x="216.902983" y="304.69375" style="stroke: #000000; stroke-width: 0.8"/>
      </g>
     </g>
     <g id="text_3">
      <!-- $\mathdefault{20}$ -->
      <g transform="translate(210.502983 319.042187)scale(0.1 -0.1)">
       <defs>
        <path id="DejaVuSans-32" d="M 1228 531 
L 3431 531 
L 3431 0 
L 469 0 
L 469 531 
Q 828 903 1448 1529 
Q 2069 2156 2228 2338 
Q 2531 2678 2651 2914 
Q 2772 3150 2772 3378 
Q 2772 3750 2511 3984 
Q 2250 4219 1831 4219 
Q 1534 4219 1204 4116 
Q 875 4013 500 3803 
L 500 4441 
Q 881 4594 1212 4672 
Q 1544 4750 1819 4750 
Q 2544 4750 2975 4387 
Q 3406 4025 3406 3419 
Q 3406 3131 3298 2873 
Q 3191 2616 2906 2266 
Q 2828 2175 2409 1742 
Q 1991 1309 1228 531 
z
" transform="scale(0.015625)"/>
       </defs>
       <use xlink:href="#DejaVuSans-32" transform="translate(0 0.78125)"/>
       <use xlink:href="#DejaVuSans-30" transform="translate(63.623047 0.78125)"/>
      </g>
     </g>
    </g>
    <g id="xtick_4">
     <g id="line2d_7">
      <path d="M 288.625142 304.69375 
L 288.625142 25.918125 
" clip-path="url(#p3934941737)" style="fill: none; stroke: #b0b0b0; stroke-opacity: 0.75; stroke-linecap: square"/>
     </g>
     <g id="line2d_8">
      <g>
       <use xlink:href="#mefe3973574" x="288.625142" y="304.69375" style="stroke: #000000; stroke-width: 0.8"/>
      </g>
     </g>
     <g id="text_4">
      <!-- $\mathdefault{30}$ -->
      <g transform="translate(282.225142 319.042187)scale(0.1 -0.1)">
       <defs>
        <path id="DejaVuSans-33" d="M 2597 2516 
Q 3050 2419 3304 2112 
Q 3559 1806 3559 1356 
Q 3559 666 3084 287 
Q 2609 -91 1734 -91 
Q 1441 -91 1130 -33 
Q 819 25 488 141 
L 488 750 
Q 750 597 1062 519 
Q 1375 441 1716 441 
Q 2309 441 2620 675 
Q 2931 909 2931 1356 
Q 2931 1769 2642 2001 
Q 2353 2234 1838 2234 
L 1294 2234 
L 1294 2753 
L 1863 2753 
Q 2328 2753 2575 2939 
Q 2822 3125 2822 3475 
Q 2822 3834 2567 4026 
Q 2313 4219 1838 4219 
Q 1578 4219 1281 4162 
Q 984 4106 628 3988 
L 628 4550 
Q 988 4650 1302 4700 
Q 1616 4750 1894 4750 
Q 2613 4750 3031 4423 
Q 3450 4097 3450 3541 
Q 3450 3153 3228 2886 
Q 3006 2619 2597 2516 
z
" transform="scale(0.015625)"/>
       </defs>
       <use xlink:href="#DejaVuSans-33" transform="translate(0 0.78125)"/>
       <use xlink:href="#DejaVuSans-30" transform="translate(63.623047 0.78125)"/>
      </g>
     </g>
    </g>
    <g id="xtick_5">
     <g id="line2d_9">
      <path d="M 360.347301 304.69375 
L 360.347301 25.918125 
" clip-path="url(#p3934941737)" style="fill: none; stroke: #b0b0b0; stroke-opacity: 0.75; stroke-linecap: square"/>
     </g>
     <g id="line2d_10">
      <g>
       <use xlink:href="#mefe3973574" x="360.347301" y="304.69375" style="stroke: #000000; stroke-width: 0.8"/>
      </g>
     </g>
     <g id="text_5">
      <!-- $\mathdefault{40}$ -->
      <g transform="translate(353.947301 319.042187)scale(0.1 -0.1)">
       <defs>
        <path id="DejaVuSans-34" d="M 2419 4116 
L 825 1625 
L 2419 1625 
L 2419 4116 
z
M 2253 4666 
L 3047 4666 
L 3047 1625 
L 3713 1625 
L 3713 1100 
L 3047 1100 
L 3047 0 
L 2419 0 
L 2419 1100 
L 313 1100 
L 313 1709 
L 2253 4666 
z
" transform="scale(0.015625)"/>
       </defs>
       <use xlink:href="#DejaVuSans-34" transform="translate(0 0.78125)"/>
       <use xlink:href="#DejaVuSans-30" transform="translate(63.623047 0.78125)"/>
      </g>
     </g>
    </g>
    <g id="xtick_6">
     <g id="line2d_11">
      <path d="M 432.06946 304.69375 
L 432.06946 25.918125 
" clip-path="url(#p3934941737)" style="fill: none; stroke: #b0b0b0; stroke-opacity: 0.75; stroke-linecap: square"/>
     </g>
     <g id="line2d_12">
      <g>
       <use xlink:href="#mefe3973574" x="432.06946" y="304.69375" style="stroke: #000000; stroke-width: 0.8"/>
      </g>
     </g>
     <g id="text_6">
      <!-- $\mathdefault{50}$ -->
      <g transform="translate(425.66946 319.042187)scale(0.1 -0.1)">
       <defs>
        <path id="DejaVuSans-35" d="M 691 4666 
L 3169 4666 
L 3169 4134 
L 1269 4134 
L 1269 2991 
Q 1406 3038 1543 3061 
Q 1681 3084 1819 3084 
Q 2600 3084 3056 2656 
Q 3513 2228 3513 1497 
Q 3513 744 3044 326 
Q 2575 -91 1722 -91 
Q 1428 -91 1123 -41 
Q 819 9 494 109 
L 494 744 
Q 775 591 1075 516 
Q 1375 441 1709 441 
Q 2250 441 2565 725 
Q 2881 1009 2881 1497 
Q 2881 1984 2565 2268 
Q 2250 2553 1709 2553 
Q 1456 2553 1204 2497 
Q 953 2441 691 2322 
L 691 4666 
z
" transform="scale(0.015625)"/>
       </defs>
       <use xlink:href="#DejaVuSans-35" transform="translate(0 0.78125)"/>
       <use xlink:href="#DejaVuSans-30" transform="translate(63.623047 0.78125)"/>
      </g>
     </g>
    </g>
    <g id="xtick_7">
     <g id="line2d_13">
      <defs>
       <path id="mf1146ab74b" d="M 0 1.5 
L 0 -1.5 
" style="stroke: #000000; stroke-width: 0.6"/>
      </defs>
      <g>
       <use xlink:href="#mf1146ab74b" x="59.114233" y="304.69375" style="stroke: #000000; stroke-width: 0.6"/>
      </g>
     </g>
    </g>
    <g id="xtick_8">
     <g id="line2d_14">
      <g>
       <use xlink:href="#mf1146ab74b" x="87.803097" y="304.69375" style="stroke: #000000; stroke-width: 0.6"/>
      </g>
     </g>
    </g>
    <g id="xtick_9">
     <g id="line2d_15">
      <g>
       <use xlink:href="#mf1146ab74b" x="102.147528" y="304.69375" style="stroke: #000000; stroke-width: 0.6"/>
      </g>
     </g>
    </g>
    <g id="xtick_10">
     <g id="line2d_16">
      <g>
       <use xlink:href="#mf1146ab74b" x="116.49196" y="304.69375" style="stroke: #000000; stroke-width: 0.6"/>
      </g>
     </g>
    </g>
    <g id="xtick_11">
     <g id="line2d_17">
      <g>
       <use xlink:href="#mf1146ab74b" x="130.836392" y="304.69375" style="stroke: #000000; stroke-width: 0.6"/>
      </g>
     </g>
    </g>
    <g id="xtick_12">
     <g id="line2d_18">
      <g>
       <use xlink:href="#mf1146ab74b" x="159.525256" y="304.69375" style="stroke: #000000; stroke-width: 0.6"/>
      </g>
     </g>
    </g>
    <g id="xtick_13">
     <g id="line2d_19">
      <g>
       <use xlink:href="#mf1146ab74b" x="173.869687" y="304.69375" style="stroke: #000000; stroke-width: 0.6"/>
      </g>
     </g>
    </g>
    <g id="xtick_14">
     <g id="line2d_20">
      <g>
       <use xlink:href="#mf1146ab74b" x="188.214119" y="304.69375" style="stroke: #000000; stroke-width: 0.6"/>
      </g>
     </g>
    </g>
    <g id="xtick_15">
     <g id="line2d_21">
      <g>
       <use xlink:href="#mf1146ab74b" x="202.558551" y="304.69375" style="stroke: #000000; stroke-width: 0.6"/>
      </g>
     </g>
    </g>
    <g id="xtick_16">
     <g id="line2d_22">
      <g>
       <use xlink:href="#mf1146ab74b" x="231.247415" y="304.69375" style="stroke: #000000; stroke-width: 0.6"/>
      </g>
     </g>
    </g>
    <g id="xtick_17">
     <g id="line2d_23">
      <g>
       <use xlink:href="#mf1146ab74b" x="245.591847" y="304.69375" style="stroke: #000000; stroke-width: 0.6"/>
      </g>
     </g>
    </g>
    <g id="xtick_18">
     <g id="line2d_24">
      <g>
       <use xlink:href="#mf1146ab74b" x="259.936278" y="304.69375" style="stroke: #000000; stroke-width: 0.6"/>
      </g>
     </g>
    </g>
    <g id="xtick_19">
     <g id="line2d_25">
      <g>
       <use xlink:href="#mf1146ab74b" x="274.28071" y="304.69375" style="stroke: #000000; stroke-width: 0.6"/>
      </g>
     </g>
    </g>
    <g id="xtick_20">
     <g id="line2d_26">
      <g>
       <use xlink:href="#mf1146ab74b" x="302.969574" y="304.69375" style="stroke: #000000; stroke-width: 0.6"/>
      </g>
     </g>
    </g>
    <g id="xtick_21">
     <g id="line2d_27">
      <g>
       <use xlink:href="#mf1146ab74b" x="317.314006" y="304.69375" style="stroke: #000000; stroke-width: 0.6"/>
      </g>
     </g>
    </g>
    <g id="xtick_22">
     <g id="line2d_28">
      <g>
       <use xlink:href="#mf1146ab74b" x="331.658437" y="304.69375" style="stroke: #000000; stroke-width: 0.6"/>
      </g>
     </g>
    </g>
    <g id="xtick_23">
     <g id="line2d_29">
      <g>
       <use xlink:href="#mf1146ab74b" x="346.002869" y="304.69375" style="stroke: #000000; stroke-width: 0.6"/>
      </g>
     </g>
    </g>
    <g id="xtick_24">
     <g id="line2d_30">
      <g>
       <use xlink:href="#mf1146ab74b" x="374.691733" y="304.69375" style="stroke: #000000; stroke-width: 0.6"/>
      </g>
     </g>
    </g>
    <g id="xtick_25">
     <g id="line2d_31">
      <g>
       <use xlink:href="#mf1146ab74b" x="389.036165" y="304.69375" style="stroke: #000000; stroke-width: 0.6"/>
      </g>
     </g>
    </g>
    <g id="xtick_26">
     <g id="line2d_32">
      <g>
       <use xlink:href="#mf1146ab74b" x="403.380597" y="304.69375" style="stroke: #000000; stroke-width: 0.6"/>
      </g>
     </g>
    </g>
    <g id="xtick_27">
     <g id="line2d_33">
      <g>
       <use xlink:href="#mf1146ab74b" x="417.725028" y="304.69375" style="stroke: #000000; stroke-width: 0.6"/>
      </g>
     </g>
    </g>
    <g id="xtick_28">
     <g id="line2d_34">
      <g>
       <use xlink:href="#mf1146ab74b" x="446.413892" y="304.69375" style="stroke: #000000; stroke-width: 0.6"/>
      </g>
     </g>
    </g>
    <g id="text_7">
     <!-- Time $t$ -->
     <g transform="translate(236.814062 332.720312)scale(0.1 -0.1)">
      <defs>
       <path id="DejaVuSans-54" d="M -19 4666 
L 3928 4666 
L 3928 4134 
L 2272 4134 
L 2272 0 
L 1638 0 
L 1638 4134 
L -19 4134 
L -19 4666 
z
" transform="scale(0.015625)"/>
       <path id="DejaVuSans-69" d="M 603 3500 
L 1178 3500 
L 1178 0 
L 603 0 
L 603 3500 
z
M 603 4863 
L 1178 4863 
L 1178 4134 
L 603 4134 
L 603 4863 
z
" transform="scale(0.015625)"/>
       <path id="DejaVuSans-6d" d="M 3328 2828 
Q 3544 3216 3844 3400 
Q 4144 3584 4550 3584 
Q 5097 3584 5394 3201 
Q 5691 2819 5691 2113 
L 5691 0 
L 5113 0 
L 5113 2094 
Q 5113 2597 4934 2840 
Q 4756 3084 4391 3084 
Q 3944 3084 3684 2787 
Q 3425 2491 3425 1978 
L 3425 0 
L 2847 0 
L 2847 2094 
Q 2847 2600 2669 2842 
Q 2491 3084 2119 3084 
Q 1678 3084 1418 2786 
Q 1159 2488 1159 1978 
L 1159 0 
L 581 0 
L 581 3500 
L 1159 3500 
L 1159 2956 
Q 1356 3278 1631 3431 
Q 1906 3584 2284 3584 
Q 2666 3584 2933 3390 
Q 3200 3197 3328 2828 
z
" transform="scale(0.015625)"/>
       <path id="DejaVuSans-65" d="M 3597 1894 
L 3597 1613 
L 953 1613 
Q 991 1019 1311 708 
Q 1631 397 2203 397 
Q 2534 397 2845 478 
Q 3156 559 3463 722 
L 3463 178 
Q 3153 47 2828 -22 
Q 2503 -91 2169 -91 
Q 1331 -91 842 396 
Q 353 884 353 1716 
Q 353 2575 817 3079 
Q 1281 3584 2069 3584 
Q 2775 3584 3186 3129 
Q 3597 2675 3597 1894 
z
M 3022 2063 
Q 3016 2534 2758 2815 
Q 2500 3097 2075 3097 
Q 1594 3097 1305 2825 
Q 1016 2553 972 2059 
L 3022 2063 
z
" transform="scale(0.015625)"/>
       <path id="DejaVuSans-20" transform="scale(0.015625)"/>
       <path id="DejaVuSans-Oblique-74" d="M 2706 3500 
L 2619 3053 
L 1472 3053 
L 1100 1153 
Q 1081 1047 1072 975 
Q 1063 903 1063 863 
Q 1063 663 1183 572 
Q 1303 481 1569 481 
L 2150 481 
L 2053 0 
L 1503 0 
Q 991 0 739 200 
Q 488 400 488 806 
Q 488 878 497 964 
Q 506 1050 525 1153 
L 897 3053 
L 409 3053 
L 500 3500 
L 978 3500 
L 1172 4494 
L 1747 4494 
L 1556 3500 
L 2706 3500 
z
" transform="scale(0.015625)"/>
      </defs>
      <use xlink:href="#DejaVuSans-54" transform="translate(0 0.015625)"/>
      <use xlink:href="#DejaVuSans-69" transform="translate(61.083984 0.015625)"/>
      <use xlink:href="#DejaVuSans-6d" transform="translate(88.867188 0.015625)"/>
      <use xlink:href="#DejaVuSans-65" transform="translate(186.279297 0.015625)"/>
      <use xlink:href="#DejaVuSans-20" transform="translate(247.802734 0.015625)"/>
      <use xlink:href="#DejaVuSans-Oblique-74" transform="translate(279.589844 0.015625)"/>
     </g>
    </g>
   </g>
   <g id="matplotlib.axis_2">
    <g id="ytick_1">
     <g id="line2d_35">
      <path d="M 55.528125 297.108815 
L 450 297.108815 
" clip-path="url(#p3934941737)" style="fill: none; stroke: #b0b0b0; stroke-opacity: 0.75; stroke-linecap: square"/>
     </g>
     <g id="line2d_36">
      <defs>
       <path id="md83884bf23" d="M 3.25 0 
L -3.25 -0 
" style="stroke: #000000; stroke-width: 0.8"/>
      </defs>
      <g>
       <use xlink:href="#md83884bf23" x="55.528125" y="297.108815" style="stroke: #000000; stroke-width: 0.8"/>
      </g>
     </g>
     <g id="text_8">
      <!-- $\mathdefault{−0.6}$ -->
      <g transform="translate(24.478125 300.908034)scale(0.1 -0.1)">
       <defs>
        <path id="DejaVuSans-2212" d="M 678 2272 
L 4684 2272 
L 4684 1741 
L 678 1741 
L 678 2272 
z
" transform="scale(0.015625)"/>
        <path id="DejaVuSans-2e" d="M 684 794 
L 1344 794 
L 1344 0 
L 684 0 
L 684 794 
z
" transform="scale(0.015625)"/>
        <path id="DejaVuSans-36" d="M 2113 2584 
Q 1688 2584 1439 2293 
Q 1191 2003 1191 1497 
Q 1191 994 1439 701 
Q 1688 409 2113 409 
Q 2538 409 2786 701 
Q 3034 994 3034 1497 
Q 3034 2003 2786 2293 
Q 2538 2584 2113 2584 
z
M 3366 4563 
L 3366 3988 
Q 3128 4100 2886 4159 
Q 2644 4219 2406 4219 
Q 1781 4219 1451 3797 
Q 1122 3375 1075 2522 
Q 1259 2794 1537 2939 
Q 1816 3084 2150 3084 
Q 2853 3084 3261 2657 
Q 3669 2231 3669 1497 
Q 3669 778 3244 343 
Q 2819 -91 2113 -91 
Q 1303 -91 875 529 
Q 447 1150 447 2328 
Q 447 3434 972 4092 
Q 1497 4750 2381 4750 
Q 2619 4750 2861 4703 
Q 3103 4656 3366 4563 
z
" transform="scale(0.015625)"/>
       </defs>
       <use xlink:href="#DejaVuSans-2212" transform="translate(0 0.78125)"/>
       <use xlink:href="#DejaVuSans-30" transform="translate(83.789062 0.78125)"/>
       <use xlink:href="#DejaVuSans-2e" transform="translate(147.412109 0.78125)"/>
       <use xlink:href="#DejaVuSans-36" transform="translate(179.199219 0.78125)"/>
      </g>
     </g>
    </g>
    <g id="ytick_2">
     <g id="line2d_37">
      <path d="M 55.528125 264.793931 
L 450 264.793931 
" clip-path="url(#p3934941737)" style="fill: none; stroke: #b0b0b0; stroke-opacity: 0.75; stroke-linecap: square"/>
     </g>
     <g id="line2d_38">
      <g>
       <use xlink:href="#md83884bf23" x="55.528125" y="264.793931" style="stroke: #000000; stroke-width: 0.8"/>
      </g>
     </g>
     <g id="text_9">
      <!-- $\mathdefault{−0.4}$ -->
      <g transform="translate(24.478125 268.59315)scale(0.1 -0.1)">
       <use xlink:href="#DejaVuSans-2212" transform="translate(0 0.78125)"/>
       <use xlink:href="#DejaVuSans-30" transform="translate(83.789062 0.78125)"/>
       <use xlink:href="#DejaVuSans-2e" transform="translate(147.412109 0.78125)"/>
       <use xlink:href="#DejaVuSans-34" transform="translate(179.199219 0.78125)"/>
      </g>
     </g>
    </g>
    <g id="ytick_3">
     <g id="line2d_39">
      <path d="M 55.528125 232.479047 
L 450 232.479047 
" clip-path="url(#p3934941737)" style="fill: none; stroke: #b0b0b0; stroke-opacity: 0.75; stroke-linecap: square"/>
     </g>
     <g id="line2d_40">
      <g>
       <use xlink:href="#md83884bf23" x="55.528125" y="232.479047" style="stroke: #000000; stroke-width: 0.8"/>
      </g>
     </g>
     <g id="text_10">
      <!-- $\mathdefault{−0.2}$ -->
      <g transform="translate(24.978125 236.278266)scale(0.1 -0.1)">
       <use xlink:href="#DejaVuSans-2212" transform="translate(0 0.78125)"/>
       <use xlink:href="#DejaVuSans-30" transform="translate(83.789062 0.78125)"/>
       <use xlink:href="#DejaVuSans-2e" transform="translate(147.412109 0.78125)"/>
       <use xlink:href="#DejaVuSans-32" transform="translate(173.699219 0.78125)"/>
      </g>
     </g>
    </g>
    <g id="ytick_4">
     <g id="line2d_41">
      <path d="M 55.528125 200.164164 
L 450 200.164164 
" clip-path="url(#p3934941737)" style="fill: none; stroke: #b0b0b0; stroke-opacity: 0.75; stroke-linecap: square"/>
     </g>
     <g id="line2d_42">
      <g>
       <use xlink:href="#md83884bf23" x="55.528125" y="200.164164" style="stroke: #000000; stroke-width: 0.8"/>
      </g>
     </g>
     <g id="text_11">
      <!-- $\mathdefault{0.0}$ -->
      <g transform="translate(32.778125 203.963382)scale(0.1 -0.1)">
       <use xlink:href="#DejaVuSans-30" transform="translate(0 0.78125)"/>
       <use xlink:href="#DejaVuSans-2e" transform="translate(63.623047 0.78125)"/>
       <use xlink:href="#DejaVuSans-30" transform="translate(95.410156 0.78125)"/>
      </g>
     </g>
    </g>
    <g id="ytick_5">
     <g id="line2d_43">
      <path d="M 55.528125 167.84928 
L 450 167.84928 
" clip-path="url(#p3934941737)" style="fill: none; stroke: #b0b0b0; stroke-opacity: 0.75; stroke-linecap: square"/>
     </g>
     <g id="line2d_44">
      <g>
       <use xlink:href="#md83884bf23" x="55.528125" y="167.84928" style="stroke: #000000; stroke-width: 0.8"/>
      </g>
     </g>
     <g id="text_12">
      <!-- $\mathdefault{0.2}$ -->
      <g transform="translate(33.378125 171.648498)scale(0.1 -0.1)">
       <use xlink:href="#DejaVuSans-30" transform="translate(0 0.78125)"/>
       <use xlink:href="#DejaVuSans-2e" transform="translate(63.623047 0.78125)"/>
       <use xlink:href="#DejaVuSans-32" transform="translate(89.910156 0.78125)"/>
      </g>
     </g>
    </g>
    <g id="ytick_6">
     <g id="line2d_45">
      <path d="M 55.528125 135.534396 
L 450 135.534396 
" clip-path="url(#p3934941737)" style="fill: none; stroke: #b0b0b0; stroke-opacity: 0.75; stroke-linecap: square"/>
     </g>
     <g id="line2d_46">
      <g>
       <use xlink:href="#md83884bf23" x="55.528125" y="135.534396" style="stroke: #000000; stroke-width: 0.8"/>
      </g>
     </g>
     <g id="text_13">
      <!-- $\mathdefault{0.4}$ -->
      <g transform="translate(32.778125 139.333615)scale(0.1 -0.1)">
       <use xlink:href="#DejaVuSans-30" transform="translate(0 0.78125)"/>
       <use xlink:href="#DejaVuSans-2e" transform="translate(63.623047 0.78125)"/>
       <use xlink:href="#DejaVuSans-34" transform="translate(95.410156 0.78125)"/>
      </g>
     </g>
    </g>
    <g id="ytick_7">
     <g id="line2d_47">
      <path d="M 55.528125 103.219512 
L 450 103.219512 
" clip-path="url(#p3934941737)" style="fill: none; stroke: #b0b0b0; stroke-opacity: 0.75; stroke-linecap: square"/>
     </g>
     <g id="line2d_48">
      <g>
       <use xlink:href="#md83884bf23" x="55.528125" y="103.219512" style="stroke: #000000; stroke-width: 0.8"/>
      </g>
     </g>
     <g id="text_14">
      <!-- $\mathdefault{0.6}$ -->
      <g transform="translate(32.778125 107.018731)scale(0.1 -0.1)">
       <use xlink:href="#DejaVuSans-30" transform="translate(0 0.78125)"/>
       <use xlink:href="#DejaVuSans-2e" transform="translate(63.623047 0.78125)"/>
       <use xlink:href="#DejaVuSans-36" transform="translate(95.410156 0.78125)"/>
      </g>
     </g>
    </g>
    <g id="ytick_8">
     <g id="line2d_49">
      <path d="M 55.528125 70.904628 
L 450 70.904628 
" clip-path="url(#p3934941737)" style="fill: none; stroke: #b0b0b0; stroke-opacity: 0.75; stroke-linecap: square"/>
     </g>
     <g id="line2d_50">
      <g>
       <use xlink:href="#md83884bf23" x="55.528125" y="70.904628" style="stroke: #000000; stroke-width: 0.8"/>
      </g>
     </g>
     <g id="text_15">
      <!-- $\mathdefault{0.8}$ -->
      <g transform="translate(33.078125 74.703847)scale(0.1 -0.1)">
       <defs>
        <path id="DejaVuSans-38" d="M 2034 2216 
Q 1584 2216 1326 1975 
Q 1069 1734 1069 1313 
Q 1069 891 1326 650 
Q 1584 409 2034 409 
Q 2484 409 2743 651 
Q 3003 894 3003 1313 
Q 3003 1734 2745 1975 
Q 2488 2216 2034 2216 
z
M 1403 2484 
Q 997 2584 770 2862 
Q 544 3141 544 3541 
Q 544 4100 942 4425 
Q 1341 4750 2034 4750 
Q 2731 4750 3128 4425 
Q 3525 4100 3525 3541 
Q 3525 3141 3298 2862 
Q 3072 2584 2669 2484 
Q 3125 2378 3379 2068 
Q 3634 1759 3634 1313 
Q 3634 634 3220 271 
Q 2806 -91 2034 -91 
Q 1263 -91 848 271 
Q 434 634 434 1313 
Q 434 1759 690 2068 
Q 947 2378 1403 2484 
z
M 1172 3481 
Q 1172 3119 1398 2916 
Q 1625 2713 2034 2713 
Q 2441 2713 2670 2916 
Q 2900 3119 2900 3481 
Q 2900 3844 2670 4047 
Q 2441 4250 2034 4250 
Q 1625 4250 1398 4047 
Q 1172 3844 1172 3481 
z
" transform="scale(0.015625)"/>
       </defs>
       <use xlink:href="#DejaVuSans-30" transform="translate(0 0.78125)"/>
       <use xlink:href="#DejaVuSans-2e" transform="translate(63.623047 0.78125)"/>
       <use xlink:href="#DejaVuSans-38" transform="translate(92.785156 0.78125)"/>
      </g>
     </g>
    </g>
    <g id="ytick_9">
     <g id="line2d_51">
      <path d="M 55.528125 38.589744 
L 450 38.589744 
" clip-path="url(#p3934941737)" style="fill: none; stroke: #b0b0b0; stroke-opacity: 0.75; stroke-linecap: square"/>
     </g>
     <g id="line2d_52">
      <g>
       <use xlink:href="#md83884bf23" x="55.528125" y="38.589744" style="stroke: #000000; stroke-width: 0.8"/>
      </g>
     </g>
     <g id="text_16">
      <!-- $\mathdefault{1.0}$ -->
      <g transform="translate(32.778125 42.388963)scale(0.1 -0.1)">
       <use xlink:href="#DejaVuSans-31" transform="translate(0 0.78125)"/>
       <use xlink:href="#DejaVuSans-2e" transform="translate(63.623047 0.78125)"/>
       <use xlink:href="#DejaVuSans-30" transform="translate(95.410156 0.78125)"/>
      </g>
     </g>
    </g>
    <g id="ytick_10">
     <g id="line2d_53">
      <defs>
       <path id="m1fe4e96cb2" d="M 1.5 0 
L -1.5 -0 
" style="stroke: #000000; stroke-width: 0.6"/>
      </defs>
      <g>
       <use xlink:href="#m1fe4e96cb2" x="55.528125" y="289.030094" style="stroke: #000000; stroke-width: 0.6"/>
      </g>
     </g>
    </g>
    <g id="ytick_11">
     <g id="line2d_54">
      <g>
       <use xlink:href="#m1fe4e96cb2" x="55.528125" y="280.951373" style="stroke: #000000; stroke-width: 0.6"/>
      </g>
     </g>
    </g>
    <g id="ytick_12">
     <g id="line2d_55">
      <g>
       <use xlink:href="#m1fe4e96cb2" x="55.528125" y="272.872652" style="stroke: #000000; stroke-width: 0.6"/>
      </g>
     </g>
    </g>
    <g id="ytick_13">
     <g id="line2d_56">
      <g>
       <use xlink:href="#m1fe4e96cb2" x="55.528125" y="256.71521" style="stroke: #000000; stroke-width: 0.6"/>
      </g>
     </g>
    </g>
    <g id="ytick_14">
     <g id="line2d_57">
      <g>
       <use xlink:href="#m1fe4e96cb2" x="55.528125" y="248.636489" style="stroke: #000000; stroke-width: 0.6"/>
      </g>
     </g>
    </g>
    <g id="ytick_15">
     <g id="line2d_58">
      <g>
       <use xlink:href="#m1fe4e96cb2" x="55.528125" y="240.557768" style="stroke: #000000; stroke-width: 0.6"/>
      </g>
     </g>
    </g>
    <g id="ytick_16">
     <g id="line2d_59">
      <g>
       <use xlink:href="#m1fe4e96cb2" x="55.528125" y="224.400326" style="stroke: #000000; stroke-width: 0.6"/>
      </g>
     </g>
    </g>
    <g id="ytick_17">
     <g id="line2d_60">
      <g>
       <use xlink:href="#m1fe4e96cb2" x="55.528125" y="216.321605" style="stroke: #000000; stroke-width: 0.6"/>
      </g>
     </g>
    </g>
    <g id="ytick_18">
     <g id="line2d_61">
      <g>
       <use xlink:href="#m1fe4e96cb2" x="55.528125" y="208.242885" style="stroke: #000000; stroke-width: 0.6"/>
      </g>
     </g>
    </g>
    <g id="ytick_19">
     <g id="line2d_62">
      <g>
       <use xlink:href="#m1fe4e96cb2" x="55.528125" y="192.085443" style="stroke: #000000; stroke-width: 0.6"/>
      </g>
     </g>
    </g>
    <g id="ytick_20">
     <g id="line2d_63">
      <g>
       <use xlink:href="#m1fe4e96cb2" x="55.528125" y="184.006722" style="stroke: #000000; stroke-width: 0.6"/>
      </g>
     </g>
    </g>
    <g id="ytick_21">
     <g id="line2d_64">
      <g>
       <use xlink:href="#m1fe4e96cb2" x="55.528125" y="175.928001" style="stroke: #000000; stroke-width: 0.6"/>
      </g>
     </g>
    </g>
    <g id="ytick_22">
     <g id="line2d_65">
      <g>
       <use xlink:href="#m1fe4e96cb2" x="55.528125" y="159.770559" style="stroke: #000000; stroke-width: 0.6"/>
      </g>
     </g>
    </g>
    <g id="ytick_23">
     <g id="line2d_66">
      <g>
       <use xlink:href="#m1fe4e96cb2" x="55.528125" y="151.691838" style="stroke: #000000; stroke-width: 0.6"/>
      </g>
     </g>
    </g>
    <g id="ytick_24">
     <g id="line2d_67">
      <g>
       <use xlink:href="#m1fe4e96cb2" x="55.528125" y="143.613117" style="stroke: #000000; stroke-width: 0.6"/>
      </g>
     </g>
    </g>
    <g id="ytick_25">
     <g id="line2d_68">
      <g>
       <use xlink:href="#m1fe4e96cb2" x="55.528125" y="127.455675" style="stroke: #000000; stroke-width: 0.6"/>
      </g>
     </g>
    </g>
    <g id="ytick_26">
     <g id="line2d_69">
      <g>
       <use xlink:href="#m1fe4e96cb2" x="55.528125" y="119.376954" style="stroke: #000000; stroke-width: 0.6"/>
      </g>
     </g>
    </g>
    <g id="ytick_27">
     <g id="line2d_70">
      <g>
       <use xlink:href="#m1fe4e96cb2" x="55.528125" y="111.298233" style="stroke: #000000; stroke-width: 0.6"/>
      </g>
     </g>
    </g>
    <g id="ytick_28">
     <g id="line2d_71">
      <g>
       <use xlink:href="#m1fe4e96cb2" x="55.528125" y="95.140791" style="stroke: #000000; stroke-width: 0.6"/>
      </g>
     </g>
    </g>
    <g id="ytick_29">
     <g id="line2d_72">
      <g>
       <use xlink:href="#m1fe4e96cb2" x="55.528125" y="87.06207" style="stroke: #000000; stroke-width: 0.6"/>
      </g>
     </g>
    </g>
    <g id="ytick_30">
     <g id="line2d_73">
      <g>
       <use xlink:href="#m1fe4e96cb2" x="55.528125" y="78.983349" style="stroke: #000000; stroke-width: 0.6"/>
      </g>
     </g>
    </g>
    <g id="ytick_31">
     <g id="line2d_74">
      <g>
       <use xlink:href="#m1fe4e96cb2" x="55.528125" y="62.825907" style="stroke: #000000; stroke-width: 0.6"/>
      </g>
     </g>
    </g>
    <g id="ytick_32">
     <g id="line2d_75">
      <g>
       <use xlink:href="#m1fe4e96cb2" x="55.528125" y="54.747186" style="stroke: #000000; stroke-width: 0.6"/>
      </g>
     </g>
    </g>
    <g id="ytick_33">
     <g id="line2d_76">
      <g>
       <use xlink:href="#m1fe4e96cb2" x="55.528125" y="46.668465" style="stroke: #000000; stroke-width: 0.6"/>
      </g>
     </g>
    </g>
    <g id="ytick_34">
     <g id="line2d_77">
      <g>
       <use xlink:href="#m1fe4e96cb2" x="55.528125" y="30.511023" style="stroke: #000000; stroke-width: 0.6"/>
      </g>
     </g>
    </g>
    <g id="text_17">
     <!-- Current -->
     <g transform="translate(18.398438 184.0825)rotate(-90)scale(0.1 -0.1)">
      <defs>
       <path id="DejaVuSans-43" d="M 4122 4306 
L 4122 3641 
Q 3803 3938 3442 4084 
Q 3081 4231 2675 4231 
Q 1875 4231 1450 3742 
Q 1025 3253 1025 2328 
Q 1025 1406 1450 917 
Q 1875 428 2675 428 
Q 3081 428 3442 575 
Q 3803 722 4122 1019 
L 4122 359 
Q 3791 134 3420 21 
Q 3050 -91 2638 -91 
Q 1578 -91 968 557 
Q 359 1206 359 2328 
Q 359 3453 968 4101 
Q 1578 4750 2638 4750 
Q 3056 4750 3426 4639 
Q 3797 4528 4122 4306 
z
" transform="scale(0.015625)"/>
       <path id="DejaVuSans-75" d="M 544 1381 
L 544 3500 
L 1119 3500 
L 1119 1403 
Q 1119 906 1312 657 
Q 1506 409 1894 409 
Q 2359 409 2629 706 
Q 2900 1003 2900 1516 
L 2900 3500 
L 3475 3500 
L 3475 0 
L 2900 0 
L 2900 538 
Q 2691 219 2414 64 
Q 2138 -91 1772 -91 
Q 1169 -91 856 284 
Q 544 659 544 1381 
z
M 1991 3584 
L 1991 3584 
z
" transform="scale(0.015625)"/>
       <path id="DejaVuSans-72" d="M 2631 2963 
Q 2534 3019 2420 3045 
Q 2306 3072 2169 3072 
Q 1681 3072 1420 2755 
Q 1159 2438 1159 1844 
L 1159 0 
L 581 0 
L 581 3500 
L 1159 3500 
L 1159 2956 
Q 1341 3275 1631 3429 
Q 1922 3584 2338 3584 
Q 2397 3584 2469 3576 
Q 2541 3569 2628 3553 
L 2631 2963 
z
" transform="scale(0.015625)"/>
       <path id="DejaVuSans-6e" d="M 3513 2113 
L 3513 0 
L 2938 0 
L 2938 2094 
Q 2938 2591 2744 2837 
Q 2550 3084 2163 3084 
Q 1697 3084 1428 2787 
Q 1159 2491 1159 1978 
L 1159 0 
L 581 0 
L 581 3500 
L 1159 3500 
L 1159 2956 
Q 1366 3272 1645 3428 
Q 1925 3584 2291 3584 
Q 2894 3584 3203 3211 
Q 3513 2838 3513 2113 
z
" transform="scale(0.015625)"/>
       <path id="DejaVuSans-74" d="M 1172 4494 
L 1172 3500 
L 2356 3500 
L 2356 3053 
L 1172 3053 
L 1172 1153 
Q 1172 725 1289 603 
Q 1406 481 1766 481 
L 2356 481 
L 2356 0 
L 1766 0 
Q 1100 0 847 248 
Q 594 497 594 1153 
L 594 3053 
L 172 3053 
L 172 3500 
L 594 3500 
L 594 4494 
L 1172 4494 
z
" transform="scale(0.015625)"/>
      </defs>
      <use xlink:href="#DejaVuSans-43"/>
      <use xlink:href="#DejaVuSans-75" x="69.824219"/>
      <use xlink:href="#DejaVuSans-72" x="133.203125"/>
      <use xlink:href="#DejaVuSans-72" x="172.566406"/>
      <use xlink:href="#DejaVuSans-65" x="211.429688"/>
      <use xlink:href="#DejaVuSans-6e" x="272.953125"/>
      <use xlink:href="#DejaVuSans-74" x="336.332031"/>
     </g>
    </g>
   </g>
   <g id="line2d_78">
    <path d="M 73.458665 38.589744 
L 73.817635 38.6905 
L 74.176604 38.990969 
L 74.535574 39.488291 
L 75.253514 41.061108 
L 75.971453 43.382826 
L 76.689393 46.422643 
L 77.766302 52.255143 
L 78.843211 59.50671 
L 80.27909 71.155491 
L 81.714969 84.75648 
L 83.509818 103.949469 
L 86.022607 133.610326 
L 92.484062 211.664327 
L 94.637881 234.451291 
L 96.43273 251.074892 
L 97.868609 262.535713 
L 99.304488 272.204752 
L 100.381397 278.223473 
L 101.458306 283.161512 
L 102.535216 287.011836 
L 103.253155 288.969554 
L 103.971095 290.440903 
L 104.689034 291.429715 
L 105.406974 291.942087 
L 105.765944 292.022131 
L 106.124913 291.986375 
L 106.842853 291.573197 
L 107.560792 290.715434 
L 108.278732 289.428229 
L 108.996672 287.728984 
L 110.073581 284.451182 
L 111.15049 280.366982 
L 112.586369 273.798963 
L 114.022248 266.113791 
L 115.817097 255.253811 
L 118.329885 238.449736 
L 125.150311 191.764922 
L 127.30413 179.054905 
L 129.098978 169.842197 
L 130.534857 163.521748 
L 131.970737 158.226008 
L 133.047646 154.961848 
L 134.124555 152.320459 
L 135.201464 150.307078 
L 135.919404 149.312394 
L 136.637343 148.592352 
L 137.355283 148.143385 
L 138.073223 147.9622 
L 138.791162 148.043162 
L 139.509102 148.379634 
L 140.227041 148.96399 
L 140.944981 149.787619 
L 142.02189 151.450436 
L 143.098799 153.59324 
L 144.175709 156.174489 
L 145.611588 160.217026 
L 147.406436 166.068448 
L 149.560255 173.964699 
L 153.508922 189.597752 
L 156.73965 202.095425 
L 158.893469 209.654591 
L 160.688318 215.225668 
L 162.124197 219.109899 
L 163.560076 222.43172 
L 164.995955 225.158787 
L 166.072864 226.801632 
L 167.149773 228.091046 
L 168.226683 229.024523 
L 169.303592 229.603751 
L 170.380501 229.834545 
L 171.457411 229.726852 
L 172.53432 229.294746 
L 173.611229 228.55643 
L 174.688139 227.534015 
L 175.765048 226.247438 
L 177.200927 224.161755 
L 178.995776 221.047901 
L 181.149594 216.737329 
L 184.021352 210.398573 
L 189.046929 199.202657 
L 191.200748 194.900986 
L 192.995597 191.719727 
L 194.790445 188.984939 
L 196.226324 187.159444 
L 197.662204 185.678922 
L 199.098083 184.554855 
L 200.174992 183.947507 
L 201.251901 183.540253 
L 202.32881 183.330984 
L 203.40572 183.315158 
L 204.482629 183.48626 
L 205.559538 183.83599 
L 206.995417 184.562479 
L 208.431296 185.559575 
L 210.226145 187.133449 
L 212.020994 189.004753 
L 214.533783 191.983795 
L 223.508027 203.090876 
L 225.661845 205.239978 
L 227.456694 206.744547 
L 229.251543 207.959609 
L 231.046392 208.86748 
L 232.482271 209.364758 
L 233.91815 209.657531 
L 235.354029 209.749643 
L 236.789908 209.64936 
L 238.584757 209.2731 
L 240.379606 208.644704 
L 242.533424 207.605715 
L 245.046213 206.086349 
L 248.27694 203.827656 
L 254.738396 199.224719 
L 257.251185 197.703045 
L 259.763973 196.451583 
L 261.917792 195.635221 
L 264.07161 195.075116 
L 266.225429 194.774719 
L 268.379247 194.728392 
L 270.533066 194.921061 
L 272.686884 195.327927 
L 275.199673 196.027255 
L 278.430401 197.185479 
L 290.635373 201.870609 
L 293.507131 202.584799 
L 296.378889 203.049173 
L 298.891677 203.239625 
L 301.763435 203.217255 
L 304.635194 202.966178 
L 307.865921 202.461354 
L 312.173559 201.545603 
L 321.865742 199.39271 
L 325.81441 198.795428 
L 329.404107 198.485631 
L 332.993805 198.407156 
L 336.942472 198.56667 
L 341.609079 199.011484 
L 350.583324 200.180402 
L 356.32684 200.800044 
L 360.993447 201.090911 
L 365.660054 201.160678 
L 370.68563 201.011105 
L 377.506056 200.565952 
L 389.352058 199.772469 
L 395.454544 199.604329 
L 401.916 199.65349 
L 410.890244 199.979829 
L 423.813156 200.433361 
L 432.06946 200.477333 
L 432.06946 200.477333 
" clip-path="url(#p3934941737)" style="fill: none; stroke: #e69f00; stroke-linecap: square"/>
   </g>
   <g id="line2d_79">
    <path d="M 73.458665 200.164164 
L 75.612483 223.362057 
L 77.407332 240.684064 
L 79.202181 255.722984 
L 80.63806 265.891268 
L 82.073939 274.279067 
L 83.150848 279.359865 
L 84.227758 283.384611 
L 85.304667 286.343824 
L 86.022607 287.725386 
L 86.740546 288.637996 
L 87.458486 289.087856 
L 88.176425 289.083596 
L 88.894365 288.636275 
L 89.612304 287.759385 
L 90.330244 286.468844 
L 91.048183 284.783003 
L 92.125093 281.559172 
L 93.202002 277.562929 
L 94.637881 271.144074 
L 96.07376 263.65579 
L 97.868609 253.093675 
L 100.381397 236.777135 
L 106.842853 193.789637 
L 108.996672 181.276068 
L 110.79152 172.14978 
L 112.227399 165.842611 
L 113.663278 160.508793 
L 114.740188 157.18573 
L 115.817097 154.462602 
L 116.894006 152.347961 
L 117.970916 150.842145 
L 118.688855 150.17295 
L 119.406795 149.766647 
L 120.124734 149.617566 
L 120.842674 149.721615 
L 121.560613 150.072375 
L 122.278553 150.661975 
L 122.996492 151.481721 
L 124.073402 153.121822 
L 125.150311 155.222561 
L 126.58619 158.670784 
L 128.022069 162.761016 
L 129.816918 168.6035 
L 132.329706 177.740779 
L 139.868071 206.030944 
L 142.02189 212.879819 
L 143.816739 217.789037 
L 145.252618 221.120332 
L 146.688497 223.884028 
L 147.765406 225.568411 
L 148.842315 226.910665 
L 149.919225 227.907308 
L 150.996134 228.559091 
L 152.073043 228.871002 
L 153.149953 228.852266 
L 154.226862 228.516346 
L 155.303771 227.880939 
L 156.380681 226.964656 
L 157.45759 225.78566 
L 158.893469 223.845483 
L 160.329348 221.538239 
L 162.124197 218.232424 
L 164.636985 213.04879 
L 172.53432 196.27238 
L 174.688139 192.457009 
L 176.482987 189.735186 
L 177.918866 187.901807 
L 179.354746 186.398906 
L 180.790625 185.239923 
L 182.226504 184.429554 
L 183.303413 184.048467 
L 184.380322 183.858571 
L 185.457232 183.855659 
L 186.534141 184.033065 
L 187.97002 184.535535 
L 189.405899 185.31949 
L 190.841778 186.355645 
L 192.636627 187.953417 
L 194.790445 190.22461 
L 197.662204 193.642346 
L 204.123659 201.517373 
L 206.636448 204.146034 
L 208.790266 206.039527 
L 210.585115 207.321488 
L 212.379964 208.311065 
L 213.815843 208.882212 
L 215.251722 209.254523 
L 216.687601 209.430165 
L 218.12348 209.415797 
L 219.918329 209.147598 
L 221.713178 208.624296 
L 223.508027 207.876873 
L 225.661845 206.734524 
L 228.174634 205.150465 
L 232.841241 201.876473 
L 236.789908 199.210837 
L 239.661666 197.554163 
L 241.815485 196.539889 
L 243.969303 195.757108 
L 246.123122 195.222851 
L 248.27694 194.940098 
L 250.430759 194.903174 
L 252.584578 195.096936 
L 254.738396 195.496829 
L 257.251185 196.179194 
L 260.481912 197.305436 
L 272.327915 201.733688 
L 275.199673 202.449136 
L 278.071431 202.924597 
L 280.584219 203.131247 
L 283.455977 203.133681 
L 286.327736 202.911695 
L 289.558463 202.440852 
L 293.866101 201.566732 
L 304.276224 199.343087 
L 308.224891 198.791101 
L 311.814589 198.518037 
L 315.404287 198.46812 
L 319.352954 198.647115 
L 324.019561 199.096805 
L 340.89114 200.961747 
L 345.557747 201.125521 
L 350.583324 201.06836 
L 356.68581 200.751304 
L 373.916358 199.690279 
L 380.377814 199.617811 
L 387.557209 199.775944 
L 410.531274 200.475424 
L 419.505518 200.392894 
L 432.06946 200.110469 
L 432.06946 200.110469 
" clip-path="url(#p3934941737)" style="fill: none; stroke-dasharray: 3.7,1.6; stroke-dashoffset: 0; stroke: #56b4e9"/>
   </g>
   <g id="patch_3">
    <path d="M 55.528125 304.69375 
L 55.528125 25.918125 
" style="fill: none; stroke: #000000; stroke-width: 0.8; stroke-linejoin: miter; stroke-linecap: square"/>
   </g>
   <g id="patch_4">
    <path d="M 450 304.69375 
L 450 25.918125 
" style="fill: none; stroke: #000000; stroke-width: 0.8; stroke-linejoin: miter; stroke-linecap: square"/>
   </g>
   <g id="patch_5">
    <path d="M 55.528125 304.69375 
L 450 304.69375 
" style="fill: none; stroke: #000000; stroke-width: 0.8; stroke-linejoin: miter; stroke-linecap: square"/>
   </g>
   <g id="patch_6">
    <path d="M 55.528125 25.918125 
L 450 25.918125 
" style="fill: none; stroke: #000000; stroke-width: 0.8; stroke-linejoin: miter; stroke-linecap: square"/>
   </g>
   <g id="text_18">
    <!-- Series RCL Circuit Simulation -->
    <g transform="translate(165.921562 19.918125)scale(0.12 -0.12)">
     <defs>
      <path id="DejaVuSans-53" d="M 3425 4513 
L 3425 3897 
Q 3066 4069 2747 4153 
Q 2428 4238 2131 4238 
Q 1616 4238 1336 4038 
Q 1056 3838 1056 3469 
Q 1056 3159 1242 3001 
Q 1428 2844 1947 2747 
L 2328 2669 
Q 3034 2534 3370 2195 
Q 3706 1856 3706 1288 
Q 3706 609 3251 259 
Q 2797 -91 1919 -91 
Q 1588 -91 1214 -16 
Q 841 59 441 206 
L 441 856 
Q 825 641 1194 531 
Q 1563 422 1919 422 
Q 2459 422 2753 634 
Q 3047 847 3047 1241 
Q 3047 1584 2836 1778 
Q 2625 1972 2144 2069 
L 1759 2144 
Q 1053 2284 737 2584 
Q 422 2884 422 3419 
Q 422 4038 858 4394 
Q 1294 4750 2059 4750 
Q 2388 4750 2728 4690 
Q 3069 4631 3425 4513 
z
" transform="scale(0.015625)"/>
      <path id="DejaVuSans-73" d="M 2834 3397 
L 2834 2853 
Q 2591 2978 2328 3040 
Q 2066 3103 1784 3103 
Q 1356 3103 1142 2972 
Q 928 2841 928 2578 
Q 928 2378 1081 2264 
Q 1234 2150 1697 2047 
L 1894 2003 
Q 2506 1872 2764 1633 
Q 3022 1394 3022 966 
Q 3022 478 2636 193 
Q 2250 -91 1575 -91 
Q 1294 -91 989 -36 
Q 684 19 347 128 
L 347 722 
Q 666 556 975 473 
Q 1284 391 1588 391 
Q 1994 391 2212 530 
Q 2431 669 2431 922 
Q 2431 1156 2273 1281 
Q 2116 1406 1581 1522 
L 1381 1569 
Q 847 1681 609 1914 
Q 372 2147 372 2553 
Q 372 3047 722 3315 
Q 1072 3584 1716 3584 
Q 2034 3584 2315 3537 
Q 2597 3491 2834 3397 
z
" transform="scale(0.015625)"/>
      <path id="DejaVuSans-52" d="M 2841 2188 
Q 3044 2119 3236 1894 
Q 3428 1669 3622 1275 
L 4263 0 
L 3584 0 
L 2988 1197 
Q 2756 1666 2539 1819 
Q 2322 1972 1947 1972 
L 1259 1972 
L 1259 0 
L 628 0 
L 628 4666 
L 2053 4666 
Q 2853 4666 3247 4331 
Q 3641 3997 3641 3322 
Q 3641 2881 3436 2590 
Q 3231 2300 2841 2188 
z
M 1259 4147 
L 1259 2491 
L 2053 2491 
Q 2509 2491 2742 2702 
Q 2975 2913 2975 3322 
Q 2975 3731 2742 3939 
Q 2509 4147 2053 4147 
L 1259 4147 
z
" transform="scale(0.015625)"/>
      <path id="DejaVuSans-4c" d="M 628 4666 
L 1259 4666 
L 1259 531 
L 3531 531 
L 3531 0 
L 628 0 
L 628 4666 
z
" transform="scale(0.015625)"/>
      <path id="DejaVuSans-63" d="M 3122 3366 
L 3122 2828 
Q 2878 2963 2633 3030 
Q 2388 3097 2138 3097 
Q 1578 3097 1268 2742 
Q 959 2388 959 1747 
Q 959 1106 1268 751 
Q 1578 397 2138 397 
Q 2388 397 2633 464 
Q 2878 531 3122 666 
L 3122 134 
Q 2881 22 2623 -34 
Q 2366 -91 2075 -91 
Q 1284 -91 818 406 
Q 353 903 353 1747 
Q 353 2603 823 3093 
Q 1294 3584 2113 3584 
Q 2378 3584 2631 3529 
Q 2884 3475 3122 3366 
z
" transform="scale(0.015625)"/>
      <path id="DejaVuSans-6c" d="M 603 4863 
L 1178 4863 
L 1178 0 
L 603 0 
L 603 4863 
z
" transform="scale(0.015625)"/>
      <path id="DejaVuSans-61" d="M 2194 1759 
Q 1497 1759 1228 1600 
Q 959 1441 959 1056 
Q 959 750 1161 570 
Q 1363 391 1709 391 
Q 2188 391 2477 730 
Q 2766 1069 2766 1631 
L 2766 1759 
L 2194 1759 
z
M 3341 1997 
L 3341 0 
L 2766 0 
L 2766 531 
Q 2569 213 2275 61 
Q 1981 -91 1556 -91 
Q 1019 -91 701 211 
Q 384 513 384 1019 
Q 384 1609 779 1909 
Q 1175 2209 1959 2209 
L 2766 2209 
L 2766 2266 
Q 2766 2663 2505 2880 
Q 2244 3097 1772 3097 
Q 1472 3097 1187 3025 
Q 903 2953 641 2809 
L 641 3341 
Q 956 3463 1253 3523 
Q 1550 3584 1831 3584 
Q 2591 3584 2966 3190 
Q 3341 2797 3341 1997 
z
" transform="scale(0.015625)"/>
      <path id="DejaVuSans-6f" d="M 1959 3097 
Q 1497 3097 1228 2736 
Q 959 2375 959 1747 
Q 959 1119 1226 758 
Q 1494 397 1959 397 
Q 2419 397 2687 759 
Q 2956 1122 2956 1747 
Q 2956 2369 2687 2733 
Q 2419 3097 1959 3097 
z
M 1959 3584 
Q 2709 3584 3137 3096 
Q 3566 2609 3566 1747 
Q 3566 888 3137 398 
Q 2709 -91 1959 -91 
Q 1206 -91 779 398 
Q 353 888 353 1747 
Q 353 2609 779 3096 
Q 1206 3584 1959 3584 
z
" transform="scale(0.015625)"/>
     </defs>
     <use xlink:href="#DejaVuSans-53"/>
     <use xlink:href="#DejaVuSans-65" x="63.476562"/>
     <use xlink:href="#DejaVuSans-72" x="125"/>
     <use xlink:href="#DejaVuSans-69" x="166.113281"/>
     <use xlink:href="#DejaVuSans-65" x="193.896484"/>
     <use xlink:href="#DejaVuSans-73" x="255.419922"/>
     <use xlink:href="#DejaVuSans-20" x="307.519531"/>
     <use xlink:href="#DejaVuSans-52" x="339.306641"/>
     <use xlink:href="#DejaVuSans-43" x="403.789062"/>
     <use xlink:href="#DejaVuSans-4c" x="473.613281"/>
     <use xlink:href="#DejaVuSans-20" x="529.326172"/>
     <use xlink:href="#DejaVuSans-43" x="561.113281"/>
     <use xlink:href="#DejaVuSans-69" x="630.9375"/>
     <use xlink:href="#DejaVuSans-72" x="658.720703"/>
     <use xlink:href="#DejaVuSans-63" x="697.583984"/>
     <use xlink:href="#DejaVuSans-75" x="752.564453"/>
     <use xlink:href="#DejaVuSans-69" x="815.943359"/>
     <use xlink:href="#DejaVuSans-74" x="843.726562"/>
     <use xlink:href="#DejaVuSans-20" x="882.935547"/>
     <use xlink:href="#DejaVuSans-53" x="914.722656"/>
     <use xlink:href="#DejaVuSans-69" x="978.199219"/>
     <use xlink:href="#DejaVuSans-6d" x="1005.982422"/>
     <use xlink:href="#DejaVuSans-75" x="1103.394531"/>
     <use xlink:href="#DejaVuSans-6c" x="1166.773438"/>
     <use xlink:href="#DejaVuSans-61" x="1194.556641"/>
     <use xlink:href="#DejaVuSans-74" x="1255.835938"/>
     <use xlink:href="#DejaVuSans-69" x="1295.044922"/>
     <use xlink:href="#DejaVuSans-6f" x="1322.828125"/>
     <use xlink:href="#DejaVuSans-6e" x="1384.009766"/>
    </g>
   </g>
   <g id="legend_1">
    <g id="patch_7">
     <path d="M 315.6 67.59625 
L 445 67.59625 
Q 447 67.59625 447 65.59625 
L 447 34.918125 
Q 447 32.918125 445 32.918125 
L 315.6 32.918125 
Q 313.6 32.918125 313.6 34.918125 
L 313.6 65.59625 
Q 313.6 67.59625 315.6 67.59625 
z
" style="fill: #4c4c4c; opacity: 0.5; stroke: #4c4c4c; stroke-linejoin: miter"/>
    </g>
    <g id="patch_8">
     <path d="M 313.6 65.59625 
L 443 65.59625 
Q 445 65.59625 445 63.59625 
L 445 32.918125 
Q 445 30.918125 443 30.918125 
L 313.6 30.918125 
Q 311.6 30.918125 311.6 32.918125 
L 311.6 63.59625 
Q 311.6 65.59625 313.6 65.59625 
z
" style="fill: #ffffff; opacity: 0.1; stroke: #cccccc; stroke-linejoin: miter"/>
    </g>
    <g id="line2d_80">
     <path d="M 315.6 39.016563 
L 325.6 39.016563 
L 335.6 39.016563 
" style="fill: none; stroke: #e69f00; stroke-linecap: square"/>
    </g>
    <g id="text_19">
     <!-- Current $I(t)$ -->
     <g transform="translate(343.6 42.516563)scale(0.1 -0.1)">
      <defs>
       <path id="DejaVuSans-Oblique-49" d="M 1081 4666 
L 1716 4666 
L 806 0 
L 172 0 
L 1081 4666 
z
" transform="scale(0.015625)"/>
       <path id="DejaVuSans-28" d="M 1984 4856 
Q 1566 4138 1362 3434 
Q 1159 2731 1159 2009 
Q 1159 1288 1364 580 
Q 1569 -128 1984 -844 
L 1484 -844 
Q 1016 -109 783 600 
Q 550 1309 550 2009 
Q 550 2706 781 3412 
Q 1013 4119 1484 4856 
L 1984 4856 
z
" transform="scale(0.015625)"/>
       <path id="DejaVuSans-29" d="M 513 4856 
L 1013 4856 
Q 1481 4119 1714 3412 
Q 1947 2706 1947 2009 
Q 1947 1309 1714 600 
Q 1481 -109 1013 -844 
L 513 -844 
Q 928 -128 1133 580 
Q 1338 1288 1338 2009 
Q 1338 2731 1133 3434 
Q 928 4138 513 4856 
z
" transform="scale(0.015625)"/>
      </defs>
      <use xlink:href="#DejaVuSans-43" transform="translate(0 0.125)"/>
      <use xlink:href="#DejaVuSans-75" transform="translate(69.824219 0.125)"/>
      <use xlink:href="#DejaVuSans-72" transform="translate(133.203125 0.125)"/>
      <use xlink:href="#DejaVuSans-72" transform="translate(174.316406 0.125)"/>
      <use xlink:href="#DejaVuSans-65" transform="translate(215.429688 0.125)"/>
      <use xlink:href="#DejaVuSans-6e" transform="translate(276.953125 0.125)"/>
      <use xlink:href="#DejaVuSans-74" transform="translate(340.332031 0.125)"/>
      <use xlink:href="#DejaVuSans-20" transform="translate(379.541016 0.125)"/>
      <use xlink:href="#DejaVuSans-Oblique-49" transform="translate(411.328125 0.125)"/>
      <use xlink:href="#DejaVuSans-28" transform="translate(440.820312 0.125)"/>
      <use xlink:href="#DejaVuSans-Oblique-74" transform="translate(479.833984 0.125)"/>
      <use xlink:href="#DejaVuSans-29" transform="translate(519.042969 0.125)"/>
     </g>
    </g>
    <g id="line2d_81">
     <path d="M 315.6 56.016563 
L 325.6 56.016563 
L 335.6 56.016563 
" style="fill: none; stroke-dasharray: 3.7,1.6; stroke-dashoffset: 0; stroke: #56b4e9"/>
    </g>
    <g id="text_20">
     <!-- Time Derivative $\dot{I}(t)$ -->
     <g transform="translate(343.6 59.516563)scale(0.1 -0.1)">
      <defs>
       <path id="DejaVuSans-44" d="M 1259 4147 
L 1259 519 
L 2022 519 
Q 2988 519 3436 956 
Q 3884 1394 3884 2338 
Q 3884 3275 3436 3711 
Q 2988 4147 2022 4147 
L 1259 4147 
z
M 628 4666 
L 1925 4666 
Q 3281 4666 3915 4102 
Q 4550 3538 4550 2338 
Q 4550 1131 3912 565 
Q 3275 0 1925 0 
L 628 0 
L 628 4666 
z
" transform="scale(0.015625)"/>
       <path id="DejaVuSans-76" d="M 191 3500 
L 800 3500 
L 1894 563 
L 2988 3500 
L 3597 3500 
L 2284 0 
L 1503 0 
L 191 3500 
z
" transform="scale(0.015625)"/>
       <path id="DejaVuSans-307" d="M -1894 4863 
L -1319 4863 
L -1319 4134 
L -1894 4134 
L -1894 4863 
z
M -1600 3584 
L -1600 3584 
z
" transform="scale(0.015625)"/>
      </defs>
      <use xlink:href="#DejaVuSans-54" transform="translate(0 0.609375)"/>
      <use xlink:href="#DejaVuSans-69" transform="translate(61.083984 0.609375)"/>
      <use xlink:href="#DejaVuSans-6d" transform="translate(88.867188 0.609375)"/>
      <use xlink:href="#DejaVuSans-65" transform="translate(186.279297 0.609375)"/>
      <use xlink:href="#DejaVuSans-20" transform="translate(247.802734 0.609375)"/>
      <use xlink:href="#DejaVuSans-44" transform="translate(279.589844 0.609375)"/>
      <use xlink:href="#DejaVuSans-65" transform="translate(356.591797 0.609375)"/>
      <use xlink:href="#DejaVuSans-72" transform="translate(418.115234 0.609375)"/>
      <use xlink:href="#DejaVuSans-69" transform="translate(459.228516 0.609375)"/>
      <use xlink:href="#DejaVuSans-76" transform="translate(487.011719 0.609375)"/>
      <use xlink:href="#DejaVuSans-61" transform="translate(546.191406 0.609375)"/>
      <use xlink:href="#DejaVuSans-74" transform="translate(607.470703 0.609375)"/>
      <use xlink:href="#DejaVuSans-69" transform="translate(646.679688 0.609375)"/>
      <use xlink:href="#DejaVuSans-76" transform="translate(674.462891 0.609375)"/>
      <use xlink:href="#DejaVuSans-65" transform="translate(733.642578 0.609375)"/>
      <use xlink:href="#DejaVuSans-20" transform="translate(795.166016 0.609375)"/>
      <use xlink:href="#DejaVuSans-307" transform="translate(870.919922 30.015625)"/>
      <use xlink:href="#DejaVuSans-Oblique-49" transform="translate(826.953125 0.609375)"/>
      <use xlink:href="#DejaVuSans-28" transform="translate(856.445312 0.609375)"/>
      <use xlink:href="#DejaVuSans-Oblique-74" transform="translate(895.458984 0.609375)"/>
      <use xlink:href="#DejaVuSans-29" transform="translate(934.667969 0.609375)"/>
     </g>
    </g>
   </g>
  </g>
 </g>
 <defs>
  <clipPath id="p3934941737">
   <rect x="55.528125" y="25.918125" width="394.471875" height="278.775625"/>
  </clipPath>
 </defs>
</svg>
