<?xml version="1.0" encoding="UTF-8" standalone="no"?>
<!-- Created with Inkscape (http://www.inkscape.org/) -->

<svg
   width="100mm"
   height="100mm"
   viewBox="0 0 100 100"
   version="1.1"
   id="svg5"
   inkscape:version="1.1.2 (0a00cf5339, 2022-02-04)"
   sodipodi:docname="transition_diagram.svg"
   inkscape:export-filename="/home/rkinnear/Documents/org/blog/content/posts/equivalenceClassesAndABrainTeaser/transition_diagram.png"
   inkscape:export-xdpi="300"
   inkscape:export-ydpi="300"
   xmlns:inkscape="http://www.inkscape.org/namespaces/inkscape"
   xmlns:sodipodi="http://sodipodi.sourceforge.net/DTD/sodipodi-0.dtd"
   xmlns="http://www.w3.org/2000/svg"
   xmlns:svg="http://www.w3.org/2000/svg">
  <sodipodi:namedview
     id="namedview7"
     pagecolor="#ffffff"
     bordercolor="#999999"
     borderopacity="1"
     inkscape:pageshadow="0"
     inkscape:pageopacity="0"
     inkscape:pagecheckerboard="0"
     inkscape:document-units="mm"
     showgrid="false"
     inkscape:zoom="1.3932941"
     inkscape:cx="125.96049"
     inkscape:cy="238.64309"
     inkscape:window-width="1846"
     inkscape:window-height="1016"
     inkscape:window-x="0"
     inkscape:window-y="0"
     inkscape:window-maximized="1"
     inkscape:current-layer="layer1"
     width="209mm" />
  <defs
     id="defs2">
    <inkscape:path-effect
       effect="bspline"
       id="path-effect54933"
       is_visible="true"
       lpeversion="1"
       weight="33.333333"
       steps="2"
       helper_size="0"
       apply_no_weight="true"
       apply_with_weight="true"
       only_selected="false" />
    <inkscape:path-effect
       effect="bspline"
       id="path-effect54779"
       is_visible="true"
       lpeversion="1"
       weight="33.333333"
       steps="2"
       helper_size="0"
       apply_no_weight="true"
       apply_with_weight="true"
       only_selected="false" />
    <inkscape:path-effect
       effect="bspline"
       id="path-effect54629"
       is_visible="true"
       lpeversion="1"
       weight="33.333333"
       steps="2"
       helper_size="0"
       apply_no_weight="true"
       apply_with_weight="true"
       only_selected="false" />
    <inkscape:path-effect
       effect="bspline"
       id="path-effect54435"
       is_visible="true"
       lpeversion="1"
       weight="33.333333"
       steps="2"
       helper_size="0"
       apply_no_weight="true"
       apply_with_weight="true"
       only_selected="false" />
    <marker
       style="overflow:visible"
       id="Arrow1Mstart"
       refX="0"
       refY="0"
       orient="auto"
       inkscape:stockid="Arrow1Mstart"
       inkscape:isstock="true">
      <path
         transform="matrix(0.4,0,0,0.4,4,0)"
         style="fill:context-stroke;fill-rule:evenodd;stroke:context-stroke;stroke-width:1pt"
         d="M 0,0 5,-5 -12.5,0 5,5 Z"
         id="path53094" />
    </marker>
    <inkscape:path-effect
       effect="bspline"
       id="path-effect53973"
       is_visible="true"
       lpeversion="1"
       weight="33.333333"
       steps="2"
       helper_size="0"
       apply_no_weight="true"
       apply_with_weight="true"
       only_selected="false" />
    <inkscape:path-effect
       effect="bspline"
       id="path-effect53823"
       is_visible="true"
       lpeversion="1"
       weight="33.333333"
       steps="2"
       helper_size="0"
       apply_no_weight="true"
       apply_with_weight="true"
       only_selected="false" />
    <inkscape:path-effect
       effect="bspline"
       id="path-effect53593"
       is_visible="true"
       lpeversion="1"
       weight="33.333333"
       steps="2"
       helper_size="0"
       apply_no_weight="true"
       apply_with_weight="true"
       only_selected="false" />
    <marker
       style="overflow:visible"
       id="Arrow1Mend"
       refX="0"
       refY="0"
       orient="auto"
       inkscape:stockid="Arrow1Mend"
       inkscape:isstock="true">
      <path
         transform="matrix(-0.4,0,0,-0.4,-4,0)"
         style="fill:context-stroke;fill-rule:evenodd;stroke:context-stroke;stroke-width:1pt"
         d="M 0,0 5,-5 -12.5,0 5,5 Z"
         id="path53097" />
    </marker>
    <marker
       style="overflow:visible"
       id="Arrow1Lend"
       refX="0"
       refY="0"
       orient="auto"
       inkscape:stockid="Arrow1Lend"
       inkscape:isstock="true">
      <path
         transform="matrix(-0.8,0,0,-0.8,-10,0)"
         style="fill:context-stroke;fill-rule:evenodd;stroke:context-stroke;stroke-width:1pt"
         d="M 0,0 5,-5 -12.5,0 5,5 Z"
         id="path53091" />
    </marker>
    <inkscape:path-effect
       effect="bspline"
       id="path-effect53006"
       is_visible="true"
       lpeversion="1"
       weight="33.333333"
       steps="2"
       helper_size="0"
       apply_no_weight="true"
       apply_with_weight="true"
       only_selected="false" />
    <marker
       style="overflow:visible"
       id="Arrow1Mend-1"
       refX="0"
       refY="0"
       orient="auto"
       inkscape:stockid="Arrow1Mend"
       inkscape:isstock="true">
      <path
         transform="matrix(-0.4,0,0,-0.4,-4,0)"
         style="fill:context-stroke;fill-rule:evenodd;stroke:context-stroke;stroke-width:1pt"
         d="M 0,0 5,-5 -12.5,0 5,5 Z"
         id="path53097-5" />
    </marker>
    <inkscape:path-effect
       effect="bspline"
       id="path-effect53006-3"
       is_visible="true"
       lpeversion="1"
       weight="33.333333"
       steps="2"
       helper_size="0"
       apply_no_weight="true"
       apply_with_weight="true"
       only_selected="false" />
    <marker
       style="overflow:visible"
       id="Arrow1Mend-1-9"
       refX="0"
       refY="0"
       orient="auto"
       inkscape:stockid="Arrow1Mend"
       inkscape:isstock="true">
      <path
         transform="matrix(-0.4,0,0,-0.4,-4,0)"
         style="fill:context-stroke;fill-rule:evenodd;stroke:context-stroke;stroke-width:1pt"
         d="M 0,0 5,-5 -12.5,0 5,5 Z"
         id="path53097-5-7" />
    </marker>
  </defs>
  <g
     inkscape:label="Layer 1"
     inkscape:groupmode="layer"
     id="layer1">
    <path
       id="path31"
       style="fill:none;fill-rule:evenodd;stroke:#000000;stroke-width:0.696345"
       d="m 43.031151,32.085777 a 7.7588315,7.7588315 0 0 1 -7.758831,7.758832 7.7588315,7.7588315 0 0 1 -7.758832,-7.758832 7.7588315,7.7588315 0 0 1 7.758832,-7.758831 7.7588315,7.7588315 0 0 1 7.758831,7.758831 z" />
    <g
       aria-label="S1"
       id="text2866"
       style="font-size:5.88294px;line-height:1.25;stroke-width:0.147306">
      <path
         d="m 35.382789,29.761282 v 0.565888 q -0.330341,-0.157989 -0.623339,-0.235547 -0.292998,-0.07756 -0.565888,-0.07756 -0.473967,0 -0.732495,0.183842 -0.255655,0.183842 -0.255655,0.522801 0,0.28438 0.169479,0.430879 0.172352,0.143626 0.649192,0.232675 l 0.350448,0.07181 q 0.649192,0.123519 0.956553,0.436625 0.310233,0.310233 0.310233,0.833033 0,0.623339 -0.41939,0.945062 -0.416516,0.321723 -1.223697,0.321723 -0.304488,0 -0.649192,-0.06894 -0.341831,-0.06894 -0.709514,-0.20395 v -0.597486 q 0.353321,0.198205 0.692279,0.298743 0.338959,0.100539 0.666427,0.100539 0.496948,0 0.766965,-0.195332 0.270018,-0.195332 0.270018,-0.557271 0,-0.315978 -0.195332,-0.494075 -0.192459,-0.178097 -0.634829,-0.267145 l -0.353321,-0.06894 q -0.649192,-0.129264 -0.939317,-0.405027 -0.290125,-0.275762 -0.290125,-0.766965 0,-0.568761 0.399281,-0.896229 0.402154,-0.327468 1.105924,-0.327468 0.301615,0 0.614721,0.05458 0.313106,0.05458 0.640574,0.163735 z"
         id="path64385" />
      <path
         d="M 36.443041,34.768387 H 37.0592 v -2.126682 l -0.670307,0.134434 v -0.343555 l 0.666572,-0.134435 h 0.377164 v 2.470238 h 0.616159 v 0.317415 h -1.605747 z"
         style="font-size:3.82392px;baseline-shift:sub"
         id="path64387" />
    </g>
    <path
       id="path31-2"
       style="fill:none;fill-rule:evenodd;stroke:#000000;stroke-width:0.696345"
       d="m 94.948735,42.036366 a 7.7588315,7.7588315 0 0 1 -7.758832,7.758831 7.7588315,7.7588315 0 0 1 -7.758831,-7.758831 7.7588315,7.7588315 0 0 1 7.758831,-7.758832 7.7588315,7.7588315 0 0 1 7.758832,7.758832 z" />
    <g
       aria-label="S*"
       id="text2866-1"
       style="font-size:5.88294px;line-height:1.25;stroke-width:0.147306">
      <path
         d="m 87.300384,39.71187 v 0.565888 q -0.330341,-0.157989 -0.623339,-0.235547 -0.292998,-0.07756 -0.565888,-0.07756 -0.473967,0 -0.732495,0.183842 -0.255655,0.183841 -0.255655,0.5228 0,0.28438 0.169479,0.430879 0.172352,0.143627 0.649192,0.232675 l 0.350448,0.07181 q 0.649192,0.123519 0.956552,0.436625 0.310234,0.310233 0.310234,0.833033 0,0.623339 -0.41939,0.945062 -0.416516,0.321724 -1.223697,0.321724 -0.304488,0 -0.649192,-0.06894 -0.341831,-0.06894 -0.709514,-0.20395 v -0.597486 q 0.353321,0.198205 0.692279,0.298743 0.338959,0.100539 0.666427,0.100539 0.496947,0 0.766965,-0.195332 0.270018,-0.195332 0.270018,-0.557271 0,-0.315978 -0.195332,-0.494075 -0.192459,-0.178097 -0.634829,-0.267145 l -0.353321,-0.06894 q -0.649192,-0.129264 -0.939317,-0.405026 -0.290126,-0.275763 -0.290126,-0.766966 0,-0.56876 0.399282,-0.896229 0.402154,-0.327468 1.105924,-0.327468 0.301615,0 0.614721,0.05458 0.313106,0.05458 0.640574,0.163735 z"
         id="path64391" />
      <path
         d="m 89.684444,42.708056 -0.670306,0.362227 0.670306,0.364094 -0.108295,0.18298 -0.627362,-0.379031 v 0.703915 h -0.212855 v -0.703915 l -0.627361,0.379031 -0.108295,-0.18298 0.670306,-0.364094 -0.670306,-0.362227 0.108295,-0.184848 0.627361,0.379032 v -0.703915 h 0.212855 v 0.703915 l 0.627362,-0.379032 z"
         style="font-size:3.82392px;baseline-shift:sub"
         id="path64393" />
    </g>
    <path
       id="path31-0"
       style="fill:none;fill-rule:evenodd;stroke:#000000;stroke-width:0.696345"
       d="m 79.57874,78.146408 a 7.7588315,7.7588315 0 0 1 -7.758832,7.758832 7.7588315,7.7588315 0 0 1 -7.758831,-7.758832 7.7588315,7.7588315 0 0 1 7.758831,-7.758831 7.7588315,7.7588315 0 0 1 7.758832,7.758831 z" />
    <g
       aria-label="S(s)2"
       id="text2866-3"
       style="font-size:5.88294px;line-height:1.25;stroke-width:0.147306">
      <path
         d="m 69.494453,76.033808 v 0.565888 q -0.330341,-0.157989 -0.623339,-0.235548 -0.292998,-0.07756 -0.565888,-0.07756 -0.473968,0 -0.732495,0.183842 -0.255655,0.183842 -0.255655,0.5228 0,0.284381 0.169479,0.43088 0.172352,0.143626 0.649192,0.232675 l 0.350448,0.07181 q 0.649192,0.123519 0.956552,0.436624 0.310234,0.310233 0.310234,0.833034 0,0.623339 -0.41939,0.945062 -0.416516,0.321723 -1.223697,0.321723 -0.304488,0 -0.649192,-0.06894 -0.341831,-0.06894 -0.709514,-0.203949 v -0.597486 q 0.353321,0.198204 0.692279,0.298743 0.338958,0.100538 0.666427,0.100538 0.496947,0 0.766965,-0.195332 0.270018,-0.195332 0.270018,-0.55727 0,-0.315979 -0.195332,-0.494075 -0.19246,-0.178097 -0.634829,-0.267146 l -0.353321,-0.06894 q -0.649192,-0.129264 -0.939317,-0.405027 -0.290126,-0.275763 -0.290126,-0.766965 0,-0.568761 0.399282,-0.896229 0.402154,-0.327469 1.105924,-0.327469 0.301615,0 0.614721,0.05458 0.313106,0.05458 0.640574,0.163735 z"
         id="path64397" />
      <path
         d="m 71.266085,74.927023 q -0.250197,0.429443 -0.371562,0.84955 -0.121364,0.420107 -0.121364,0.851418 0,0.43131 0.121364,0.855151 0.123232,0.421975 0.371562,0.849551 h -0.298743 q -0.280071,-0.438779 -0.420107,-0.862621 -0.138169,-0.423841 -0.138169,-0.842081 0,-0.416373 0.138169,-0.838348 0.138168,-0.421974 0.420107,-0.86262 z"
         style="font-size:3.82391px;baseline-shift:super"
         id="path64399" />
      <path
         d="m 73.265796,75.798979 v 0.324883 q -0.145637,-0.07469 -0.302477,-0.112029 -0.15684,-0.03734 -0.324883,-0.03734 -0.255799,0 -0.384632,0.07842 -0.126966,0.07842 -0.126966,0.23526 0,0.119498 0.09149,0.188582 0.09149,0.06722 0.367828,0.128833 l 0.11763,0.02614 q 0.36596,0.07842 0.519066,0.22219 0.154972,0.141903 0.154972,0.397702 0,0.291274 -0.231525,0.461184 -0.229659,0.16991 -0.632962,0.16991 -0.168043,0 -0.351023,-0.03361 -0.181113,-0.03174 -0.382764,-0.09709 v -0.354757 q 0.190448,0.09896 0.375295,0.149371 0.184848,0.04855 0.365961,0.04855 0.242728,0 0.373428,-0.08215 0.1307,-0.08402 0.1307,-0.23526 0,-0.140036 -0.09522,-0.214722 -0.09336,-0.07469 -0.412639,-0.14377 l -0.119497,-0.02801 q -0.319281,-0.06722 -0.461184,-0.205386 -0.141903,-0.140036 -0.141903,-0.382764 0,-0.295009 0.20912,-0.455583 0.20912,-0.160575 0.593751,-0.160575 0.190449,0 0.358492,0.02801 0.168043,0.02801 0.309946,0.08402 z"
         style="font-size:3.82391px;baseline-shift:super"
         id="path64401" />
      <path
         d="m 73.87075,74.927023 h 0.298743 q 0.280072,0.440646 0.418241,0.86262 0.140035,0.421975 0.140035,0.838348 0,0.41824 -0.140035,0.842081 -0.138169,0.423842 -0.418241,0.862621 H 73.87075 q 0.248331,-0.427576 0.369695,-0.849551 0.123231,-0.423841 0.123231,-0.855151 0,-0.431311 -0.123231,-0.851418 -0.121364,-0.420107 -0.369695,-0.84955 z"
         style="font-size:3.82391px;baseline-shift:super"
         id="path64403" />
      <path
         d="m 75.790176,81.040913 h 1.31634 v 0.317415 h -1.770057 v -0.317415 q 0.214722,-0.222191 0.584418,-0.595621 0.371562,-0.375297 0.466787,-0.483591 0.181113,-0.203519 0.252065,-0.343556 0.07282,-0.141903 0.07282,-0.278205 0,-0.22219 -0.156841,-0.362227 -0.154973,-0.140036 -0.405171,-0.140036 -0.177379,0 -0.375297,0.06162 -0.19605,0.06162 -0.420108,0.186715 V 78.70511 q 0.227792,-0.09149 0.42571,-0.138169 0.197917,-0.04668 0.362226,-0.04668 0.433179,0 0.690845,0.216589 0.257667,0.21659 0.257667,0.578816 0,0.171778 -0.06535,0.326751 -0.06348,0.153106 -0.233394,0.362227 -0.04668,0.05415 -0.296877,0.313681 -0.250197,0.257667 -0.705782,0.722587 z"
         style="font-size:3.82392px;baseline-shift:sub"
         id="path64405" />
    </g>
    <path
       id="path31-0-6"
       style="fill:none;fill-rule:evenodd;stroke:#000000;stroke-width:0.696345"
       d="m 31.902293,68.557724 a 7.7588315,7.7588315 0 0 1 -7.758832,7.758832 7.7588315,7.7588315 0 0 1 -7.758831,-7.758832 7.7588315,7.7588315 0 0 1 7.758831,-7.758832 7.7588315,7.7588315 0 0 1 7.758832,7.758832 z" />
    <g
       aria-label="S(d)2"
       id="text2866-3-3"
       style="font-size:5.88294px;line-height:1.25;stroke-width:0.147306">
      <path
         d="m 21.817998,66.445131 v 0.565888 q -0.330341,-0.157989 -0.623338,-0.235547 -0.292998,-0.07756 -0.565889,-0.07756 -0.473967,0 -0.732495,0.183842 -0.255655,0.183841 -0.255655,0.5228 0,0.28438 0.169479,0.430879 0.172352,0.143627 0.649192,0.232675 l 0.350449,0.07181 q 0.649191,0.123519 0.956552,0.436625 0.310233,0.310233 0.310233,0.833033 0,0.623339 -0.419389,0.945062 -0.416517,0.321724 -1.223698,0.321724 -0.304488,0 -0.649191,-0.06894 -0.341831,-0.06894 -0.709515,-0.20395 V 69.80599 q 0.353321,0.198205 0.69228,0.298743 0.338958,0.100539 0.666426,0.100539 0.496948,0 0.766966,-0.195332 0.270017,-0.195332 0.270017,-0.557271 0,-0.315978 -0.195332,-0.494075 -0.192459,-0.178097 -0.634829,-0.267145 l -0.353321,-0.06894 q -0.649191,-0.129263 -0.939317,-0.405026 -0.290125,-0.275763 -0.290125,-0.766966 0,-0.56876 0.399281,-0.896229 0.402154,-0.327468 1.105924,-0.327468 0.301616,0 0.614721,0.05458 0.313106,0.05458 0.640574,0.163734 z"
         id="path64409" />
      <path
         d="m 23.58963,65.338346 q -0.250197,0.429443 -0.371561,0.849551 -0.121364,0.420107 -0.121364,0.851417 0,0.43131 0.121364,0.855152 0.123231,0.421974 0.371561,0.84955 h -0.298742 q -0.280072,-0.438778 -0.420108,-0.86262 -0.138168,-0.423842 -0.138168,-0.842082 0,-0.416373 0.138168,-0.838347 0.138169,-0.421975 0.420108,-0.862621 z"
         style="font-size:3.82391px;baseline-shift:super"
         id="path64411" />
      <path
         d="m 25.632286,66.466101 v -1.131489 h 0.343554 v 2.905275 h -0.343554 v -0.31368 q -0.108295,0.186715 -0.274471,0.278205 -0.164308,0.08962 -0.395834,0.08962 -0.37903,0 -0.618024,-0.302478 -0.237128,-0.302477 -0.237128,-0.795403 0,-0.492926 0.237128,-0.795403 0.238994,-0.302477 0.618024,-0.302477 0.231526,0 0.395834,0.09149 0.166176,0.08962 0.274471,0.276337 z m -1.170699,0.730053 q 0,0.37903 0.154972,0.595619 0.156841,0.214722 0.429444,0.214722 0.272602,0 0.429443,-0.214722 0.15684,-0.216589 0.15684,-0.595619 0,-0.37903 -0.15684,-0.593751 -0.156841,-0.216589 -0.429443,-0.216589 -0.272603,0 -0.429444,0.216589 -0.154972,0.214721 -0.154972,0.593751 z"
         style="font-size:3.82391px;baseline-shift:super"
         id="path64413" />
      <path
         d="m 26.62934,65.338346 h 0.298743 q 0.280072,0.440646 0.41824,0.862621 0.140036,0.421974 0.140036,0.838347 0,0.41824 -0.140036,0.842082 -0.138168,0.423842 -0.41824,0.86262 H 26.62934 q 0.24833,-0.427576 0.369695,-0.84955 0.123231,-0.423842 0.123231,-0.855152 0,-0.43131 -0.123231,-0.851417 -0.121365,-0.420108 -0.369695,-0.849551 z"
         style="font-size:3.82391px;baseline-shift:super"
         id="path64415" />
      <path
         d="m 28.548766,71.452236 h 1.31634 v 0.317415 h -1.770057 v -0.317415 q 0.214722,-0.222191 0.584417,-0.59562 0.371563,-0.375297 0.466788,-0.483592 0.181113,-0.203519 0.252065,-0.343555 0.07282,-0.141903 0.07282,-0.278205 0,-0.222191 -0.15684,-0.362227 -0.154973,-0.140036 -0.405171,-0.140036 -0.177379,0 -0.375297,0.06162 -0.196051,0.06162 -0.420109,0.186715 v -0.380899 q 0.227793,-0.09149 0.42571,-0.138169 0.197918,-0.04668 0.362227,-0.04668 0.433179,0 0.690845,0.216589 0.257666,0.216589 0.257666,0.578816 0,0.171778 -0.06535,0.326751 -0.06348,0.153106 -0.233393,0.362227 -0.04668,0.05415 -0.296877,0.313681 -0.250198,0.257666 -0.705782,0.722586 z"
         style="font-size:3.82392px;baseline-shift:sub"
         id="path64417" />
    </g>
    <g
       aria-label="flip_diag"
       transform="rotate(-6.6916799)"
       id="text38327-5"
       style="font-size:4.10289px;line-height:1.25;stroke:#e81818;stroke-width:0.102572">
      <path
         d="m 48.860706,47.792877 c 0.04924,0 0.08616,-0.03282 0.08616,-0.08206 0,-0.04103 -0.02462,-0.06975 -0.07385,-0.08206 -0.131293,-0.02462 -0.414392,-0.05334 -0.570302,-0.05334 -0.36926,0 -0.631845,0.217453 -0.631845,0.516964 v 0.250277 h -0.361054 c -0.07385,0 -0.110778,0.02872 -0.110778,0.08206 0,0.05744 0.03693,0.08616 0.110778,0.08616 h 0.361054 v 1.374468 h -0.402083 c -0.07385,0 -0.110778,0.02872 -0.110778,0.08206 0,0.05744 0.03693,0.08616 0.110778,0.08616 h 1.300616 c 0.06975,0 0.110778,-0.02872 0.110778,-0.08616 0,-0.05334 -0.03693,-0.08206 -0.110778,-0.08206 h -0.730314 v -1.374468 h 0.775446 c 0.07385,0 0.110778,-0.02872 0.110778,-0.08616 0,-0.05334 -0.03693,-0.08206 -0.110778,-0.08206 h -0.775446 v -0.250277 c 0,-0.205144 0.18463,-0.348745 0.45542,-0.348745 0.205145,0 0.537479,0.04923 0.566199,0.04923 z"
         style="font-family:'Tlwg Typewriter';-inkscape-font-specification:'Tlwg Typewriter, Normal'"
         id="path64420" />
      <path
         d="m 50.501856,47.575424 h -0.648257 c -0.07385,0 -0.110778,0.02872 -0.110778,0.08206 0,0.05744 0.03693,0.08616 0.110778,0.08616 h 0.480039 v 2.141708 h -0.656463 c -0.07385,0 -0.110778,0.02872 -0.110778,0.08206 0,0.05744 0.03693,0.08616 0.110778,0.08616 h 1.481143 c 0.07385,0 0.114881,-0.02872 0.114881,-0.08616 0,-0.05334 -0.03693,-0.08206 -0.114881,-0.08206 h -0.656462 z"
         style="font-family:'Tlwg Typewriter';-inkscape-font-specification:'Tlwg Typewriter, Normal'"
         id="path64422" />
      <path
         d="m 52.963584,48.342665 h -0.65236 c -0.07385,0 -0.110778,0.02872 -0.110778,0.08206 0,0.05744 0.03693,0.08616 0.110778,0.08616 h 0.484141 v 1.374468 h -0.656462 c -0.07385,0 -0.110778,0.02872 -0.110778,0.08206 0,0.05744 0.03693,0.08616 0.110778,0.08616 h 1.481143 c 0.07385,0 0.114881,-0.02872 0.114881,-0.08616 0,-0.05334 -0.03693,-0.08206 -0.114881,-0.08206 h -0.656462 z m -0.0082,-0.849299 h -0.24207 v 0.426701 h 0.24207 z"
         style="font-family:'Tlwg Typewriter';-inkscape-font-specification:'Tlwg Typewriter, Normal'"
         id="path64424" />
      <path
         d="m 55.433517,48.453443 c 0.410289,0 0.730315,0.332334 0.730315,0.759034 0,0.402084 -0.332334,0.738521 -0.730315,0.738521 -0.406186,0 -0.730314,-0.336437 -0.730314,-0.750829 0,-0.414392 0.324128,-0.746726 0.730314,-0.746726 z m -0.730314,1.239072 c 0.192836,0.2831 0.439009,0.426701 0.73852,0.426701 0.492347,0 0.890327,-0.414392 0.890327,-0.927253 0,-0.508758 -0.389774,-0.906739 -0.890327,-0.906739 -0.303614,0 -0.533376,0.12719 -0.73852,0.422598 v -0.365157 h -0.389775 c -0.07385,0 -0.110778,0.02872 -0.110778,0.08206 0,0.05744 0.03693,0.08616 0.110778,0.08616 h 0.221556 v 2.137606 h -0.221556 c -0.07385,0 -0.110778,0.02872 -0.110778,0.08206 0,0.05744 0.03693,0.08616 0.110778,0.08616 h 0.791858 c 0.07385,0 0.110778,-0.02872 0.110778,-0.08616 0,-0.05334 -0.03693,-0.08206 -0.110778,-0.08206 h -0.402083 z"
         style="font-family:'Tlwg Typewriter';-inkscape-font-specification:'Tlwg Typewriter, Normal'"
         id="path64426" />
      <path
         d="M 59.085083,50.361287 H 56.52488 v 0.205144 h 2.560203 z"
         style="font-family:'Tlwg Typewriter';-inkscape-font-specification:'Tlwg Typewriter, Normal'"
         id="path64428" />
      <path
         d="m 61.095494,47.575424 h -0.389775 c -0.07385,0 -0.110778,0.02872 -0.110778,0.08206 0,0.05744 0.03693,0.08616 0.110778,0.08616 h 0.221556 v 0.968282 c -0.201041,-0.291305 -0.439009,-0.426701 -0.746726,-0.426701 -0.488244,0 -0.886224,0.410289 -0.886224,0.914945 0,0.504655 0.39798,0.919047 0.886224,0.919047 0.307717,0 0.55389,-0.143601 0.746726,-0.430803 v 0.365157 h 0.389775 c 0.07385,0 0.110778,-0.02872 0.110778,-0.08616 0,-0.05334 -0.03693,-0.08206 -0.110778,-0.08206 h -0.221556 z m -0.902636,0.878019 c 0.414392,0 0.734417,0.328231 0.734417,0.754931 0,0.410289 -0.328231,0.742624 -0.730314,0.742624 -0.410289,0 -0.734418,-0.332335 -0.734418,-0.750829 0,-0.414392 0.324129,-0.746726 0.730315,-0.746726 z"
         style="font-family:'Tlwg Typewriter';-inkscape-font-specification:'Tlwg Typewriter, Normal'"
         id="path64430" />
      <path
         d="m 62.810495,48.342665 h -0.65236 c -0.07385,0 -0.110778,0.02872 -0.110778,0.08206 0,0.05744 0.03693,0.08616 0.110778,0.08616 h 0.484141 v 1.374468 h -0.656462 c -0.07385,0 -0.110778,0.02872 -0.110778,0.08206 0,0.05744 0.03693,0.08616 0.110778,0.08616 h 1.481143 c 0.07385,0 0.114881,-0.02872 0.114881,-0.08616 0,-0.05334 -0.03693,-0.08206 -0.114881,-0.08206 h -0.656462 z m -0.0082,-0.849299 h -0.24207 v 0.426701 h 0.24207 z"
         style="font-family:'Tlwg Typewriter';-inkscape-font-specification:'Tlwg Typewriter, Normal'"
         id="path64432" />
      <path
         d="m 65.67841,50.05357 h 0.389775 c 0.07385,0 0.110778,-0.02872 0.110778,-0.08616 0,-0.05334 -0.03693,-0.08206 -0.110778,-0.08206 h -0.221557 v -1.09547 c 0,-0.291306 -0.278996,-0.504656 -0.660565,-0.504656 -0.151807,0 -0.418495,0.05334 -0.644154,0.131293 -0.04513,0.01641 -0.06975,0.04513 -0.06975,0.08616 0,0.04513 0.03693,0.08206 0.07796,0.08206 0.0082,0 0.02462,-0.0041 0.04103,-0.0082 0.320026,-0.09847 0.434906,-0.123086 0.582611,-0.123086 0.299511,0 0.504655,0.135395 0.504655,0.336437 v 0.291305 c -0.242071,-0.06565 -0.36926,-0.08616 -0.557993,-0.08616 -0.512861,0 -0.86571,0.242071 -0.86571,0.599022 0,0.31182 0.258482,0.52517 0.640051,0.52517 0.287202,0 0.533376,-0.106675 0.783652,-0.34054 z m 0,-0.459524 c -0.274894,0.258482 -0.49645,0.356952 -0.787755,0.356952 -0.283099,0 -0.467729,-0.139499 -0.467729,-0.352849 0,-0.258482 0.295408,-0.434906 0.730314,-0.434906 0.180527,0 0.377466,0.02462 0.52517,0.06154 z"
         style="font-family:'Tlwg Typewriter';-inkscape-font-specification:'Tlwg Typewriter, Normal'"
         id="path64434" />
      <path
         d="m 68.226298,48.707822 c -0.18463,-0.291305 -0.402083,-0.422598 -0.701594,-0.422598 -0.463627,0 -0.845196,0.410289 -0.845196,0.914945 0,0.504655 0.381569,0.919047 0.845196,0.919047 0.295408,0 0.516964,-0.135395 0.701594,-0.422598 v 0.447215 c 0,0.278997 -0.221556,0.504656 -0.500553,0.504656 H 67.24981 c -0.07385,0 -0.110778,0.02872 -0.110778,0.08206 0,0.05744 0.03693,0.08616 0.110778,0.08616 h 0.467729 c 0.381569,0 0.676977,-0.303614 0.676977,-0.648256 v -1.657568 h 0.221556 c 0.07385,0 0.110778,-0.02872 0.110778,-0.08616 0,-0.05334 -0.03693,-0.08206 -0.110778,-0.08206 h -0.389774 z m -0.689286,-0.254379 c 0.389775,0 0.689286,0.332334 0.689286,0.754931 0,0.406187 -0.307717,0.742624 -0.689286,0.742624 -0.381568,0 -0.689285,-0.336437 -0.689285,-0.750829 0,-0.410289 0.303614,-0.746726 0.689285,-0.746726 z"
         style="font-family:'Tlwg Typewriter';-inkscape-font-specification:'Tlwg Typewriter, Normal'"
         id="path64436" />
    </g>
    <g
       aria-label="flip_diag"
       id="text38327-03"
       style="font-size:4.10289px;line-height:1.25;stroke:#e81818;stroke-width:0.102572">
      <path
         d="m 33.74778,13.689659 c 0.04923,0 0.08616,-0.03282 0.08616,-0.08206 0,-0.04103 -0.02462,-0.06975 -0.07385,-0.08206 -0.131292,-0.02462 -0.414392,-0.05334 -0.570301,-0.05334 -0.36926,0 -0.631845,0.217453 -0.631845,0.516964 v 0.250277 h -0.361055 c -0.07385,0 -0.110778,0.02872 -0.110778,0.08206 0,0.05744 0.03693,0.08616 0.110778,0.08616 h 0.361055 v 1.374468 H 32.15586 c -0.07385,0 -0.110778,0.02872 -0.110778,0.08206 0,0.05744 0.03693,0.08616 0.110778,0.08616 h 1.300617 c 0.06975,0 0.110778,-0.02872 0.110778,-0.08616 0,-0.05334 -0.03693,-0.08206 -0.110778,-0.08206 H 32.72616 V 14.40766 h 0.775446 c 0.07385,0 0.110778,-0.02872 0.110778,-0.08616 0,-0.05334 -0.03693,-0.08206 -0.110778,-0.08206 H 32.72616 v -0.25027 c 0,-0.205144 0.18463,-0.348745 0.455421,-0.348745 0.205144,0 0.537478,0.04923 0.566199,0.04923 z"
         style="font-family:'Tlwg Typewriter';-inkscape-font-specification:'Tlwg Typewriter, Normal'"
         id="path64458" />
      <path
         d="m 35.38893,13.472206 h -0.648257 c -0.07385,0 -0.110778,0.02872 -0.110778,0.08206 0,0.05744 0.03693,0.08616 0.110778,0.08616 h 0.480038 v 2.141708 h -0.656462 c -0.07385,0 -0.110778,0.02872 -0.110778,0.08206 0,0.05744 0.03693,0.08616 0.110778,0.08616 h 1.481143 c 0.07385,0 0.114881,-0.02872 0.114881,-0.08616 0,-0.05334 -0.03693,-0.08206 -0.114881,-0.08206 H 35.38893 Z"
         style="font-family:'Tlwg Typewriter';-inkscape-font-specification:'Tlwg Typewriter, Normal'"
         id="path64460" />
      <path
         d="m 37.850657,14.239447 h -0.652359 c -0.07385,0 -0.110778,0.02872 -0.110778,0.08206 0,0.05744 0.03693,0.08616 0.110778,0.08616 h 0.484141 v 1.374468 h -0.656462 c -0.07385,0 -0.110779,0.02872 -0.110779,0.08206 0,0.05744 0.03693,0.08616 0.110779,0.08616 h 1.481143 c 0.07385,0 0.114881,-0.02872 0.114881,-0.08616 0,-0.05334 -0.03693,-0.08206 -0.114881,-0.08206 h -0.656463 z m -0.0082,-0.849299 h -0.242071 v 0.426701 h 0.242071 z"
         style="font-family:'Tlwg Typewriter';-inkscape-font-specification:'Tlwg Typewriter, Normal'"
         id="path64462" />
      <path
         d="m 40.320591,14.350225 c 0.410289,0 0.730314,0.332334 0.730314,0.759034 0,0.402083 -0.332334,0.73852 -0.730314,0.73852 -0.406186,0 -0.730315,-0.336437 -0.730315,-0.750828 0,-0.414392 0.324129,-0.746726 0.730315,-0.746726 z m -0.730315,1.239072 c 0.192836,0.2831 0.43901,0.426701 0.738521,0.426701 0.492346,0 0.890327,-0.414392 0.890327,-0.927253 0,-0.508759 -0.389775,-0.906739 -0.890327,-0.906739 -0.303614,0 -0.533376,0.12719 -0.738521,0.422598 v -0.365157 h -0.389774 c -0.07385,0 -0.110778,0.02872 -0.110778,0.08206 0,0.05744 0.03693,0.08616 0.110778,0.08616 h 0.221556 v 2.137606 h -0.221556 c -0.07385,0 -0.110778,0.02872 -0.110778,0.08206 0,0.05744 0.03693,0.08616 0.110778,0.08616 h 0.791858 c 0.07385,0 0.110778,-0.02872 0.110778,-0.08616 0,-0.05334 -0.03693,-0.08206 -0.110778,-0.08206 h -0.402084 z"
         style="font-family:'Tlwg Typewriter';-inkscape-font-specification:'Tlwg Typewriter, Normal'"
         id="path64464" />
      <path
         d="m 43.972157,16.258068 h -2.560203 v 0.205145 h 2.560203 z"
         style="font-family:'Tlwg Typewriter';-inkscape-font-specification:'Tlwg Typewriter, Normal'"
         id="path64466" />
      <path
         d="m 45.982567,13.472206 h -0.389774 c -0.07385,0 -0.110778,0.02872 -0.110778,0.08206 0,0.05744 0.03693,0.08616 0.110778,0.08616 h 0.221556 v 0.968282 c -0.201042,-0.291306 -0.43901,-0.426701 -0.746726,-0.426701 -0.488244,0 -0.886225,0.410289 -0.886225,0.914945 0,0.504655 0.397981,0.919047 0.886225,0.919047 0.307716,0 0.55389,-0.143601 0.746726,-0.430803 v 0.365157 h 0.389774 c 0.07385,0 0.110778,-0.02872 0.110778,-0.08616 0,-0.05334 -0.03693,-0.08206 -0.110778,-0.08206 h -0.221556 z m -0.902636,0.878019 c 0.414392,0 0.734418,0.328231 0.734418,0.754931 0,0.410289 -0.328231,0.742623 -0.730315,0.742623 -0.410289,0 -0.734417,-0.332334 -0.734417,-0.750828 0,-0.414392 0.324128,-0.746726 0.730314,-0.746726 z"
         style="font-family:'Tlwg Typewriter';-inkscape-font-specification:'Tlwg Typewriter, Normal'"
         id="path64468" />
      <path
         d="m 47.697568,14.239447 h -0.652359 c -0.07385,0 -0.110778,0.02872 -0.110778,0.08206 0,0.05744 0.03693,0.08616 0.110778,0.08616 h 0.484141 v 1.374468 h -0.656463 c -0.07385,0 -0.110778,0.02872 -0.110778,0.08206 0,0.05744 0.03693,0.08616 0.110778,0.08616 h 1.481144 c 0.07385,0 0.114881,-0.02872 0.114881,-0.08616 0,-0.05334 -0.03693,-0.08206 -0.114881,-0.08206 h -0.656463 z m -0.0082,-0.849299 h -0.242071 v 0.426701 h 0.242071 z"
         style="font-family:'Tlwg Typewriter';-inkscape-font-specification:'Tlwg Typewriter, Normal'"
         id="path64470" />
      <path
         d="m 50.565484,15.950352 h 0.389774 c 0.07385,0 0.110778,-0.02872 0.110778,-0.08616 0,-0.05334 -0.03693,-0.08206 -0.110778,-0.08206 h -0.221556 v -1.095471 c 0,-0.291306 -0.278997,-0.504656 -0.660565,-0.504656 -0.151807,0 -0.418495,0.05334 -0.644154,0.131293 -0.04513,0.01641 -0.06975,0.04513 -0.06975,0.08616 0,0.04513 0.03693,0.08206 0.07795,0.08206 0.0082,0 0.02462,-0.0041 0.04103,-0.0082 0.320025,-0.09847 0.434906,-0.123086 0.58261,-0.123086 0.299511,0 0.504656,0.135395 0.504656,0.336437 v 0.291305 c -0.242071,-0.06565 -0.369261,-0.08616 -0.557994,-0.08616 -0.512861,0 -0.865709,0.242071 -0.865709,0.599022 0,0.31182 0.258482,0.52517 0.640051,0.52517 0.287202,0 0.533375,-0.106675 0.783652,-0.34054 z m 0,-0.459524 c -0.274894,0.258482 -0.49645,0.356951 -0.787755,0.356951 -0.2831,0 -0.46773,-0.139498 -0.46773,-0.352848 0,-0.258482 0.295408,-0.434906 0.730315,-0.434906 0.180527,0 0.377465,0.02462 0.52517,0.06154 z"
         style="font-family:'Tlwg Typewriter';-inkscape-font-specification:'Tlwg Typewriter, Normal'"
         id="path64472" />
      <path
         d="m 53.113371,14.604604 c -0.18463,-0.291305 -0.402083,-0.422598 -0.701594,-0.422598 -0.463626,0 -0.845195,0.410289 -0.845195,0.914945 0,0.504655 0.381569,0.919047 0.845195,0.919047 0.295408,0 0.516964,-0.135395 0.701594,-0.422598 v 0.447215 c 0,0.278997 -0.221556,0.504656 -0.500552,0.504656 h -0.475935 c -0.07385,0 -0.110779,0.02872 -0.110779,0.08206 0,0.05744 0.03693,0.08616 0.110779,0.08616 h 0.467729 c 0.381569,0 0.676977,-0.303614 0.676977,-0.648256 v -1.657568 h 0.221556 c 0.07385,0 0.110778,-0.02872 0.110778,-0.08616 0,-0.05334 -0.03693,-0.08206 -0.110778,-0.08206 h -0.389775 z m -0.689285,-0.254379 c 0.389774,0 0.689285,0.332334 0.689285,0.754931 0,0.406186 -0.307716,0.742623 -0.689285,0.742623 -0.381569,0 -0.689286,-0.336437 -0.689286,-0.750828 0,-0.410289 0.303614,-0.746726 0.689286,-0.746726 z"
         style="font-family:'Tlwg Typewriter';-inkscape-font-specification:'Tlwg Typewriter, Normal'"
         id="path64474" />
    </g>
    <g
       aria-label="flip_one"
       id="text38327-0-3"
       style="font-size:4.10289px;line-height:1.25;stroke:#16e714;stroke-width:0.102572">
      <path
         d="m 11.929474,47.451279 c 0.04923,0 0.08616,-0.03282 0.08616,-0.08206 0,-0.04103 -0.02462,-0.06975 -0.07385,-0.08206 -0.131292,-0.02462 -0.414391,-0.05334 -0.570301,-0.05334 -0.36926,0 -0.631845,0.217453 -0.631845,0.516964 v 0.250276 h -0.361055 c -0.07385,0 -0.110778,0.02872 -0.110778,0.08206 0,0.05744 0.03693,0.08616 0.110778,0.08616 h 0.361055 v 1.374468 h -0.402084 c -0.07385,0 -0.110778,0.02872 -0.110778,0.08206 0,0.05744 0.03693,0.08616 0.110778,0.08616 h 1.300617 c 0.06975,0 0.110778,-0.02872 0.110778,-0.08616 0,-0.05334 -0.03693,-0.08206 -0.110778,-0.08206 H 10.907854 V 48.169285 H 11.6833 c 0.07385,0 0.110778,-0.02872 0.110778,-0.08616 0,-0.05334 -0.03693,-0.08206 -0.110778,-0.08206 H 10.907854 V 47.75079 c 0,-0.205145 0.18463,-0.348746 0.455421,-0.348746 0.205144,0 0.537478,0.04924 0.566199,0.04924 z"
         style="font-family:'Tlwg Typewriter';-inkscape-font-specification:'Tlwg Typewriter, Normal'"
         id="path64477" />
      <path
         d="m 13.570624,47.233826 h -0.648257 c -0.07385,0 -0.110778,0.02872 -0.110778,0.08206 0,0.05744 0.03693,0.08616 0.110778,0.08616 h 0.480038 v 2.141709 h -0.656462 c -0.07385,0 -0.110778,0.02872 -0.110778,0.08206 0,0.05744 0.03693,0.08616 0.110778,0.08616 h 1.481143 c 0.07385,0 0.114881,-0.02872 0.114881,-0.08616 0,-0.05334 -0.03693,-0.08206 -0.114881,-0.08206 h -0.656462 z"
         style="font-family:'Tlwg Typewriter';-inkscape-font-specification:'Tlwg Typewriter, Normal'"
         id="path64479" />
      <path
         d="m 16.032351,48.001066 h -0.652359 c -0.07385,0 -0.110778,0.02872 -0.110778,0.08206 0,0.05744 0.03693,0.08616 0.110778,0.08616 h 0.484141 v 1.374468 h -0.656462 c -0.07385,0 -0.110778,0.02872 -0.110778,0.08206 0,0.05744 0.03693,0.08616 0.110778,0.08616 h 1.481143 c 0.07385,0 0.114881,-0.02872 0.114881,-0.08616 0,-0.05334 -0.03693,-0.08206 -0.114881,-0.08206 h -0.656463 z m -0.0082,-0.849298 H 15.78208 v 0.4267 h 0.242071 z"
         style="font-family:'Tlwg Typewriter';-inkscape-font-specification:'Tlwg Typewriter, Normal'"
         id="path64481" />
      <path
         d="m 18.502285,48.111844 c 0.410289,0 0.730314,0.332334 0.730314,0.759035 0,0.402083 -0.332334,0.73852 -0.730314,0.73852 -0.406186,0 -0.730315,-0.336437 -0.730315,-0.750829 0,-0.414392 0.324129,-0.746726 0.730315,-0.746726 z m -0.730315,1.239073 c 0.192836,0.283099 0.43901,0.426701 0.738521,0.426701 0.492346,0 0.890327,-0.414392 0.890327,-0.927254 0,-0.508758 -0.389775,-0.906738 -0.890327,-0.906738 -0.303614,0 -0.533376,0.127189 -0.738521,0.422597 v -0.365157 h -0.389774 c -0.07385,0 -0.110778,0.02872 -0.110778,0.08206 0,0.05744 0.03693,0.08616 0.110778,0.08616 h 0.221556 v 2.137605 h -0.221556 c -0.07385,0 -0.110778,0.02872 -0.110778,0.08206 0,0.05744 0.03693,0.08616 0.110778,0.08616 h 0.791858 c 0.07385,0 0.110778,-0.02872 0.110778,-0.08616 0,-0.05334 -0.03693,-0.08206 -0.110778,-0.08206 H 17.77197 Z"
         style="font-family:'Tlwg Typewriter';-inkscape-font-specification:'Tlwg Typewriter, Normal'"
         id="path64483" />
      <path
         d="m 22.153851,50.019688 h -2.560203 v 0.205145 h 2.560203 z"
         style="font-family:'Tlwg Typewriter';-inkscape-font-specification:'Tlwg Typewriter, Normal'"
         id="path64485" />
      <path
         d="m 23.335477,47.943626 c -0.521067,0 -0.935458,0.410289 -0.935458,0.914944 0,0.512861 0.414391,0.919048 0.935458,0.919048 0.516965,0 0.935459,-0.406187 0.935459,-0.906739 0,-0.521067 -0.410289,-0.927253 -0.935459,-0.927253 z m 0,0.168218 c 0.430804,0 0.767241,0.328231 0.767241,0.759035 0,0.406186 -0.344643,0.73852 -0.767241,0.73852 -0.4267,0 -0.76724,-0.332334 -0.76724,-0.750829 0,-0.414392 0.34054,-0.746726 0.76724,-0.746726 z"
         style="font-family:'Tlwg Typewriter';-inkscape-font-specification:'Tlwg Typewriter, Normal'"
         id="path64487" />
      <path
         d="m 25.25152,48.001066 h -0.307717 c -0.07385,0 -0.110778,0.02872 -0.110778,0.08206 0,0.05744 0.03693,0.08616 0.110778,0.08616 h 0.139499 v 1.374468 h -0.18463 c -0.07796,0 -0.114881,0.02872 -0.114881,0.08206 0,0.05744 0.03693,0.08616 0.114881,0.08616 h 0.537478 c 0.07385,0 0.110778,-0.02872 0.110778,-0.08616 0,-0.05334 -0.03693,-0.08206 -0.110778,-0.08206 h -0.18463 v -1.038031 c 0.131293,-0.168219 0.172322,-0.213351 0.233865,-0.258482 0.114881,-0.09437 0.233865,-0.135396 0.389775,-0.135396 0.160012,0 0.237967,0.02462 0.336436,0.106675 0.102573,0.08616 0.15591,0.188733 0.15591,0.31182 v 1.013414 h -0.139498 c -0.07385,0 -0.110778,0.02872 -0.110778,0.08206 0,0.05744 0.03693,0.08616 0.110778,0.08616 h 0.447215 c 0.07385,0 0.110778,-0.02872 0.110778,-0.08616 0,-0.05334 -0.03693,-0.08206 -0.110778,-0.08206 H 26.535725 V 48.50162 c 0,-0.315923 -0.278997,-0.557993 -0.644154,-0.557993 -0.254379,0 -0.402083,0.07795 -0.640051,0.34054 z"
         style="font-family:'Tlwg Typewriter';-inkscape-font-specification:'Tlwg Typewriter, Normal'"
         id="path64489" />
      <path
         d="m 29.161569,48.895496 c 0,-0.188733 -0.01231,-0.266688 -0.06975,-0.402083 -0.147704,-0.34054 -0.475935,-0.549787 -0.869812,-0.549787 -0.52517,0 -0.935459,0.381568 -0.935459,0.878018 0,0.533376 0.439009,0.955974 0.992899,0.955974 0.373363,0 0.86571,-0.192836 0.86571,-0.336437 0,-0.04513 -0.03693,-0.08206 -0.07795,-0.08206 -0.02051,0 -0.03693,0.0082 -0.06565,0.02872 -0.164116,0.131292 -0.463627,0.221556 -0.718006,0.221556 -0.443112,0 -0.771343,-0.283099 -0.828784,-0.713903 z m -1.706802,-0.168218 c 0.07385,-0.377466 0.36926,-0.615434 0.767241,-0.615434 0.39798,0 0.701594,0.242071 0.76724,0.615434 z"
         style="font-family:'Tlwg Typewriter';-inkscape-font-specification:'Tlwg Typewriter, Normal'"
         id="path64491" />
    </g>
    <g
       aria-label="flip_one"
       id="text38327-0-3-3"
       style="font-size:4.10289px;line-height:1.25;stroke:#16e714;stroke-width:0.102572">
      <path
         d="m 50.974876,26.146179 c 0.04923,0 0.08616,-0.03282 0.08616,-0.08206 0,-0.04103 -0.02462,-0.06975 -0.07385,-0.08206 -0.131293,-0.02462 -0.414392,-0.05334 -0.570302,-0.05334 -0.36926,0 -0.631845,0.217453 -0.631845,0.516964 v 0.250277 h -0.361054 c -0.07385,0 -0.110778,0.02872 -0.110778,0.08206 0,0.05744 0.03693,0.08616 0.110778,0.08616 h 0.361054 v 1.374468 h -0.402083 c -0.07385,0 -0.110778,0.02872 -0.110778,0.08206 0,0.05744 0.03693,0.08616 0.110778,0.08616 h 1.300616 c 0.06975,0 0.110778,-0.02872 0.110778,-0.08616 0,-0.05334 -0.03693,-0.08206 -0.110778,-0.08206 H 49.953258 V 26.86418 h 0.775446 c 0.07385,0 0.110778,-0.02872 0.110778,-0.08616 0,-0.05334 -0.03693,-0.08206 -0.110778,-0.08206 h -0.775447 v -0.25027 c 0,-0.205144 0.18463,-0.348745 0.45542,-0.348745 0.205145,0 0.537479,0.04923 0.566199,0.04923 z"
         style="font-family:'Tlwg Typewriter';-inkscape-font-specification:'Tlwg Typewriter, Normal'"
         id="path64494" />
      <path
         d="m 52.616026,25.928726 h -0.648257 c -0.07385,0 -0.110778,0.02872 -0.110778,0.08206 0,0.05744 0.03693,0.08616 0.110778,0.08616 h 0.480039 v 2.141708 h -0.656463 c -0.07385,0 -0.110778,0.02872 -0.110778,0.08206 0,0.05744 0.03693,0.08616 0.110778,0.08616 h 1.481144 c 0.07385,0 0.11488,-0.02872 0.11488,-0.08616 0,-0.05334 -0.03693,-0.08206 -0.11488,-0.08206 h -0.656463 z"
         style="font-family:'Tlwg Typewriter';-inkscape-font-specification:'Tlwg Typewriter, Normal'"
         id="path64496" />
      <path
         d="m 55.077754,26.695967 h -0.65236 c -0.07385,0 -0.110778,0.02872 -0.110778,0.08206 0,0.05744 0.03693,0.08616 0.110778,0.08616 h 0.484141 v 1.374468 h -0.656462 c -0.07385,0 -0.110778,0.02872 -0.110778,0.08206 0,0.05744 0.03693,0.08616 0.110778,0.08616 h 1.481143 c 0.07385,0 0.114881,-0.02872 0.114881,-0.08616 0,-0.05334 -0.03693,-0.08206 -0.114881,-0.08206 h -0.656462 z m -0.0082,-0.849299 h -0.24207 v 0.426701 h 0.24207 z"
         style="font-family:'Tlwg Typewriter';-inkscape-font-specification:'Tlwg Typewriter, Normal'"
         id="path64498" />
      <path
         d="m 57.547687,26.806745 c 0.410289,0 0.730315,0.332334 0.730315,0.759034 0,0.402084 -0.332334,0.738521 -0.730315,0.738521 -0.406186,0 -0.730314,-0.336437 -0.730314,-0.750829 0,-0.414392 0.324128,-0.746726 0.730314,-0.746726 z m -0.730314,1.239072 c 0.192836,0.2831 0.439009,0.426701 0.73852,0.426701 0.492347,0 0.890327,-0.414392 0.890327,-0.927253 0,-0.508758 -0.389774,-0.906739 -0.890327,-0.906739 -0.303614,0 -0.533376,0.12719 -0.73852,0.422598 v -0.365157 h -0.389775 c -0.07385,0 -0.110778,0.02872 -0.110778,0.08206 0,0.05744 0.03693,0.08616 0.110778,0.08616 h 0.221556 v 2.137606 h -0.221556 c -0.07385,0 -0.110778,0.02872 -0.110778,0.08206 0,0.05744 0.03693,0.08616 0.110778,0.08616 h 0.791858 c 0.07385,0 0.110778,-0.02872 0.110778,-0.08616 0,-0.05334 -0.03693,-0.08206 -0.110778,-0.08206 h -0.402083 z"
         style="font-family:'Tlwg Typewriter';-inkscape-font-specification:'Tlwg Typewriter, Normal'"
         id="path64500" />
      <path
         d="M 61.199254,28.714589 H 58.63905 v 0.205144 h 2.560204 z"
         style="font-family:'Tlwg Typewriter';-inkscape-font-specification:'Tlwg Typewriter, Normal'"
         id="path64502" />
      <path
         d="m 62.38088,26.638526 c -0.521067,0 -0.935459,0.410289 -0.935459,0.914945 0,0.512861 0.414392,0.919047 0.935459,0.919047 0.516964,0 0.935459,-0.406186 0.935459,-0.906739 0,-0.521067 -0.410289,-0.927253 -0.935459,-0.927253 z m 0,0.168219 c 0.430803,0 0.76724,0.328231 0.76724,0.759034 0,0.406186 -0.344642,0.738521 -0.76724,0.738521 -0.426701,0 -0.76724,-0.332335 -0.76724,-0.750829 0,-0.414392 0.340539,-0.746726 0.76724,-0.746726 z"
         style="font-family:'Tlwg Typewriter';-inkscape-font-specification:'Tlwg Typewriter, Normal'"
         id="path64504" />
      <path
         d="m 64.296923,26.695967 h -0.307717 c -0.07385,0 -0.110778,0.02872 -0.110778,0.08206 0,0.05744 0.03693,0.08616 0.110778,0.08616 h 0.139498 v 1.374468 h -0.18463 c -0.07796,0 -0.114881,0.02872 -0.114881,0.08206 0,0.05744 0.03693,0.08616 0.114881,0.08616 h 0.537479 c 0.07385,0 0.110778,-0.02872 0.110778,-0.08616 0,-0.05334 -0.03693,-0.08206 -0.110778,-0.08206 h -0.18463 v -1.038031 c 0.131292,-0.168218 0.172321,-0.21335 0.233864,-0.258482 0.114881,-0.09437 0.233865,-0.135395 0.389775,-0.135395 0.160013,0 0.237968,0.02462 0.336437,0.106675 0.102572,0.08616 0.15591,0.188733 0.15591,0.311819 v 1.013414 h -0.139498 c -0.07385,0 -0.110778,0.02872 -0.110778,0.08206 0,0.05744 0.03693,0.08616 0.110778,0.08616 h 0.447215 c 0.07385,0 0.110778,-0.02872 0.110778,-0.08616 0,-0.05334 -0.03693,-0.08206 -0.110778,-0.08206 h -0.139499 v -1.042134 c 0,-0.315922 -0.278996,-0.557993 -0.644153,-0.557993 -0.25438,0 -0.402084,0.07796 -0.640051,0.34054 z"
         style="font-family:'Tlwg Typewriter';-inkscape-font-specification:'Tlwg Typewriter, Normal'"
         id="path64506" />
      <path
         d="m 68.206972,27.590397 c 0,-0.188733 -0.01231,-0.266688 -0.06975,-0.402084 -0.147704,-0.340539 -0.475935,-0.549787 -0.869813,-0.549787 -0.52517,0 -0.935459,0.381569 -0.935459,0.878019 0,0.533375 0.439009,0.955973 0.9929,0.955973 0.373363,0 0.865709,-0.192836 0.865709,-0.336437 0,-0.04513 -0.03693,-0.08206 -0.07796,-0.08206 -0.02051,0 -0.03693,0.0082 -0.06565,0.02872 -0.164115,0.131293 -0.463626,0.221557 -0.718005,0.221557 -0.443113,0 -0.771344,-0.2831 -0.828784,-0.713903 z M 66.50017,27.422178 c 0.07385,-0.377466 0.36926,-0.615433 0.76724,-0.615433 0.39798,0 0.701594,0.24207 0.767241,0.615433 z"
         style="font-family:'Tlwg Typewriter';-inkscape-font-specification:'Tlwg Typewriter, Normal'"
         id="path64508" />
    </g>
    <g
       aria-label="flip_one"
       transform="rotate(-7.385918)"
       id="text38327-0-3-3-2"
       style="font-size:4.10289px;line-height:1.25;stroke:#16e714;stroke-width:0.102572">
      <path
         d="m 31.673118,68.829792 c 0.04923,0 0.08616,-0.03282 0.08616,-0.08206 0,-0.04103 -0.02462,-0.06975 -0.07385,-0.08206 -0.131292,-0.02462 -0.414392,-0.05334 -0.570302,-0.05334 -0.36926,0 -0.631845,0.217453 -0.631845,0.516964 v 0.250276 h -0.361054 c -0.07385,0 -0.110778,0.02872 -0.110778,0.08206 0,0.05744 0.03693,0.08616 0.110778,0.08616 h 0.361054 v 1.374468 h -0.402083 c -0.07385,0 -0.110778,0.02872 -0.110778,0.08206 0,0.05744 0.03693,0.08616 0.110778,0.08616 h 1.300616 c 0.06975,0 0.110778,-0.02872 0.110778,-0.08616 0,-0.05334 -0.03693,-0.08206 -0.110778,-0.08206 H 30.6515 v -1.374468 h 0.775446 c 0.07385,0 0.110778,-0.02872 0.110778,-0.08616 0,-0.05334 -0.03693,-0.08206 -0.110778,-0.08206 H 30.6515 v -0.250276 c 0,-0.205144 0.18463,-0.348745 0.455421,-0.348745 0.205144,0 0.537478,0.04923 0.566198,0.04923 z"
         style="font-family:'Tlwg Typewriter';-inkscape-font-specification:'Tlwg Typewriter, Normal'"
         id="path64511" />
      <path
         d="m 33.314268,68.612339 h -0.648256 c -0.07385,0 -0.110778,0.02872 -0.110778,0.08206 0,0.05744 0.03693,0.08616 0.110778,0.08616 h 0.480038 v 2.141708 h -0.656463 c -0.07385,0 -0.110778,0.02872 -0.110778,0.08206 0,0.05744 0.03693,0.08616 0.110778,0.08616 h 1.481144 c 0.07385,0 0.114881,-0.02872 0.114881,-0.08616 0,-0.05334 -0.03693,-0.08206 -0.114881,-0.08206 h -0.656463 z"
         style="font-family:'Tlwg Typewriter';-inkscape-font-specification:'Tlwg Typewriter, Normal'"
         id="path64513" />
      <path
         d="m 35.775996,69.379579 h -0.652359 c -0.07385,0 -0.110778,0.02872 -0.110778,0.08206 0,0.05744 0.03693,0.08616 0.110778,0.08616 h 0.484141 v 1.374468 h -0.656463 c -0.07385,0 -0.110778,0.02872 -0.110778,0.08206 0,0.05744 0.03693,0.08616 0.110778,0.08616 h 1.481144 c 0.07385,0 0.11488,-0.02872 0.11488,-0.08616 0,-0.05334 -0.03693,-0.08206 -0.11488,-0.08206 h -0.656463 z m -0.0082,-0.849298 h -0.24207 v 0.426701 h 0.24207 z"
         style="font-family:'Tlwg Typewriter';-inkscape-font-specification:'Tlwg Typewriter, Normal'"
         id="path64515" />
      <path
         d="m 38.24593,69.490358 c 0.410289,0 0.730314,0.332334 0.730314,0.759034 0,0.402083 -0.332334,0.73852 -0.730314,0.73852 -0.406187,0 -0.730315,-0.336437 -0.730315,-0.750829 0,-0.414391 0.324128,-0.746725 0.730315,-0.746725 z m -0.730315,1.239072 c 0.192836,0.2831 0.439009,0.426701 0.73852,0.426701 0.492347,0 0.890327,-0.414392 0.890327,-0.927253 0,-0.508759 -0.389774,-0.906739 -0.890327,-0.906739 -0.303614,0 -0.533375,0.12719 -0.73852,0.422598 v -0.365158 h -0.389774 c -0.07385,0 -0.110778,0.02872 -0.110778,0.08206 0,0.05744 0.03693,0.08616 0.110778,0.08616 h 0.221556 v 2.137606 h -0.221556 c -0.07385,0 -0.110778,0.02872 -0.110778,0.08206 0,0.05744 0.03693,0.08616 0.110778,0.08616 h 0.791857 c 0.07385,0 0.110778,-0.02872 0.110778,-0.08616 0,-0.05334 -0.03693,-0.08206 -0.110778,-0.08206 h -0.402083 z"
         style="font-family:'Tlwg Typewriter';-inkscape-font-specification:'Tlwg Typewriter, Normal'"
         id="path64517" />
      <path
         d="m 41.897496,71.398201 h -2.560204 v 0.205145 h 2.560204 z"
         style="font-family:'Tlwg Typewriter';-inkscape-font-specification:'Tlwg Typewriter, Normal'"
         id="path64519" />
      <path
         d="m 43.079122,69.322139 c -0.521067,0 -0.935459,0.410289 -0.935459,0.914944 0,0.512862 0.414392,0.919048 0.935459,0.919048 0.516964,0 0.935459,-0.406186 0.935459,-0.906739 0,-0.521067 -0.410289,-0.927253 -0.935459,-0.927253 z m 0,0.168219 c 0.430804,0 0.767241,0.328231 0.767241,0.759034 0,0.406186 -0.344643,0.73852 -0.767241,0.73852 -0.4267,0 -0.76724,-0.332334 -0.76724,-0.750829 0,-0.414391 0.34054,-0.746725 0.76724,-0.746725 z"
         style="font-family:'Tlwg Typewriter';-inkscape-font-specification:'Tlwg Typewriter, Normal'"
         id="path64521" />
      <path
         d="m 44.995165,69.379579 h -0.307717 c -0.07385,0 -0.110778,0.02872 -0.110778,0.08206 0,0.05744 0.03693,0.08616 0.110778,0.08616 h 0.139498 v 1.374468 h -0.18463 c -0.07796,0 -0.114881,0.02872 -0.114881,0.08206 0,0.05744 0.03693,0.08616 0.114881,0.08616 h 0.537479 c 0.07385,0 0.110778,-0.02872 0.110778,-0.08616 0,-0.05334 -0.03693,-0.08206 -0.110778,-0.08206 h -0.18463 v -1.038031 c 0.131292,-0.168219 0.172321,-0.21335 0.233865,-0.258482 0.114881,-0.09437 0.233864,-0.135395 0.389774,-0.135395 0.160013,0 0.237968,0.02462 0.336437,0.106675 0.102572,0.08616 0.15591,0.188733 0.15591,0.311819 v 1.013414 h -0.139498 c -0.07385,0 -0.110778,0.02872 -0.110778,0.08206 0,0.05744 0.03693,0.08616 0.110778,0.08616 h 0.447215 c 0.07385,0 0.110778,-0.02872 0.110778,-0.08616 0,-0.05334 -0.03693,-0.08206 -0.110778,-0.08206 H 46.27937 v -1.042134 c 0,-0.315922 -0.278997,-0.557993 -0.644154,-0.557993 -0.254379,0 -0.402083,0.07795 -0.640051,0.34054 z"
         style="font-family:'Tlwg Typewriter';-inkscape-font-specification:'Tlwg Typewriter, Normal'"
         id="path64523" />
      <path
         d="m 48.905214,70.27401 c 0,-0.188733 -0.01231,-0.266688 -0.06975,-0.402084 -0.147704,-0.34054 -0.475935,-0.549787 -0.869813,-0.549787 -0.52517,0 -0.935459,0.381569 -0.935459,0.878018 0,0.533376 0.43901,0.955974 0.9929,0.955974 0.373363,0 0.86571,-0.192836 0.86571,-0.336437 0,-0.04513 -0.03693,-0.08206 -0.07796,-0.08206 -0.02052,0 -0.03693,0.0082 -0.06565,0.02872 -0.164115,0.131293 -0.463626,0.221556 -0.718005,0.221556 -0.443112,0 -0.771344,-0.283099 -0.828784,-0.713902 z m -1.706802,-0.168219 c 0.07385,-0.377466 0.36926,-0.615433 0.76724,-0.615433 0.397981,0 0.701595,0.24207 0.767241,0.615433 z"
         style="font-family:'Tlwg Typewriter';-inkscape-font-specification:'Tlwg Typewriter, Normal'"
         id="path64525" />
    </g>
    <text
       xml:space="preserve"
       style="font-style:normal;font-weight:normal;font-size:10.5833px;line-height:1.25;font-family:sans-serif;fill:#000000;fill-opacity:1;stroke:none;stroke-width:0.264583"
       x="87.999039"
       y="50.719006"
       id="text44205"><tspan
         sodipodi:role="line"
         id="tspan44203"
         style="stroke-width:0.264583"
         x="87.999039"
         y="50.719006" /></text>
    <g
       aria-label="flip_side"
       id="text38327-9-7"
       style="font-size:4.10289px;line-height:1.25;stroke:#121be5;stroke-width:0.102572">
      <path
         d="m 36.431755,80.977261 c 0.04923,0 0.08616,-0.03282 0.08616,-0.08206 0,-0.04103 -0.02462,-0.06975 -0.07385,-0.08206 -0.131293,-0.02462 -0.414392,-0.05334 -0.570302,-0.05334 -0.36926,0 -0.631845,0.217453 -0.631845,0.516964 v 0.250276 h -0.361055 c -0.07385,0 -0.110778,0.02872 -0.110778,0.08206 0,0.05744 0.03693,0.08616 0.110778,0.08616 h 0.361055 v 1.374468 h -0.402083 c -0.07385,0 -0.110778,0.02872 -0.110778,0.08206 0,0.05744 0.03693,0.08616 0.110778,0.08616 h 1.300616 c 0.06975,0 0.110778,-0.02872 0.110778,-0.08616 0,-0.05334 -0.03693,-0.08206 -0.110778,-0.08206 h -0.730315 v -1.374468 h 0.775447 c 0.07385,0 0.110778,-0.02872 0.110778,-0.08616 0,-0.05334 -0.03693,-0.08206 -0.110778,-0.08206 h -0.775447 v -0.250276 c 0,-0.205145 0.18463,-0.348746 0.455421,-0.348746 0.205145,0 0.537479,0.04923 0.566199,0.04923 z"
         style="font-family:'Tlwg Typewriter';-inkscape-font-specification:'Tlwg Typewriter, Normal'"
         id="path64528" />
      <path
         d="m 38.072905,80.759808 h -0.648257 c -0.07385,0 -0.110778,0.02872 -0.110778,0.08206 0,0.05744 0.03693,0.08616 0.110778,0.08616 h 0.480038 v 2.141709 h -0.656462 c -0.07385,0 -0.110778,0.02872 -0.110778,0.08206 0,0.05744 0.03693,0.08616 0.110778,0.08616 h 1.481143 c 0.07385,0 0.114881,-0.02872 0.114881,-0.08616 0,-0.05334 -0.03693,-0.08206 -0.114881,-0.08206 h -0.656462 z"
         style="font-family:'Tlwg Typewriter';-inkscape-font-specification:'Tlwg Typewriter, Normal'"
         id="path64530" />
      <path
         d="m 40.534633,81.527048 h -0.65236 c -0.07385,0 -0.110778,0.02872 -0.110778,0.08206 0,0.05744 0.03693,0.08616 0.110778,0.08616 h 0.484141 v 1.374468 h -0.656462 c -0.07385,0 -0.110778,0.02872 -0.110778,0.08206 0,0.05744 0.03693,0.08616 0.110778,0.08616 h 1.481143 c 0.07385,0 0.114881,-0.02872 0.114881,-0.08616 0,-0.05334 -0.03693,-0.08206 -0.114881,-0.08206 h -0.656462 z m -0.0082,-0.849298 h -0.242071 v 0.4267 h 0.242071 z"
         style="font-family:'Tlwg Typewriter';-inkscape-font-specification:'Tlwg Typewriter, Normal'"
         id="path64532" />
      <path
         d="m 43.004566,81.637826 c 0.410289,0 0.730314,0.332334 0.730314,0.759035 0,0.402083 -0.332334,0.73852 -0.730314,0.73852 -0.406186,0 -0.730314,-0.336437 -0.730314,-0.750829 0,-0.414392 0.324128,-0.746726 0.730314,-0.746726 z m -0.730314,1.239073 c 0.192835,0.283099 0.439009,0.4267 0.73852,0.4267 0.492347,0 0.890327,-0.414391 0.890327,-0.927253 0,-0.508758 -0.389775,-0.906738 -0.890327,-0.906738 -0.303614,0 -0.533376,0.127189 -0.73852,0.422597 v -0.365157 h -0.389775 c -0.07385,0 -0.110778,0.02872 -0.110778,0.08206 0,0.05744 0.03693,0.08616 0.110778,0.08616 h 0.221556 v 2.137605 h -0.221556 c -0.07385,0 -0.110778,0.02872 -0.110778,0.08206 0,0.05744 0.03693,0.08616 0.110778,0.08616 h 0.791858 c 0.07385,0 0.110778,-0.02872 0.110778,-0.08616 0,-0.05334 -0.03693,-0.08206 -0.110778,-0.08206 h -0.402083 z"
         style="font-family:'Tlwg Typewriter';-inkscape-font-specification:'Tlwg Typewriter, Normal'"
         id="path64534" />
      <path
         d="m 46.656132,83.54567 h -2.560203 v 0.205144 h 2.560203 z"
         style="font-family:'Tlwg Typewriter';-inkscape-font-specification:'Tlwg Typewriter, Normal'"
         id="path64536" />
      <path
         d="m 48.37934,81.658341 c -0.143601,-0.12719 -0.328231,-0.188733 -0.562096,-0.188733 -0.402083,0 -0.701594,0.196938 -0.701594,0.463626 0,0.12719 0.07385,0.250276 0.188733,0.324128 0.114881,0.06975 0.229762,0.09847 0.533376,0.131293 0.225659,0.02462 0.336437,0.05334 0.443112,0.110778 0.110778,0.06154 0.180527,0.164116 0.180527,0.258482 0,0.217453 -0.270791,0.377466 -0.631845,0.377466 -0.348746,0 -0.631845,-0.151807 -0.631845,-0.34054 v -0.02872 c 0,-0.05334 -0.03282,-0.09026 -0.08206,-0.09026 -0.05744,0 -0.08616,0.03693 -0.08616,0.110778 v 0.34054 c 0,0.07385 0.02872,0.110778 0.08616,0.110778 0.05334,0 0.08206,-0.03693 0.08206,-0.110778 v -0.04513 c 0.172321,0.151807 0.377466,0.221556 0.644154,0.221556 0.463626,0 0.804166,-0.229761 0.804166,-0.541581 0,-0.143601 -0.07796,-0.283099 -0.205145,-0.36926 -0.131292,-0.08616 -0.283099,-0.131293 -0.533375,-0.160013 -0.361055,-0.03693 -0.385672,-0.04513 -0.475935,-0.102572 -0.08616,-0.04923 -0.131293,-0.118984 -0.131293,-0.18463 0,-0.176424 0.229762,-0.307717 0.533376,-0.307717 0.311819,0 0.52517,0.118984 0.545684,0.303614 0.0082,0.06565 0.03693,0.09437 0.08616,0.09437 0.05334,0 0.08206,-0.03693 0.08206,-0.110778 v -0.283099 c 0,-0.07796 -0.02872,-0.114881 -0.08206,-0.114881 -0.05334,0 -0.08616,0.04513 -0.08616,0.114881 z"
         style="font-family:'Tlwg Typewriter';-inkscape-font-specification:'Tlwg Typewriter, Normal'"
         id="path64538" />
      <path
         d="m 50.381544,81.527048 h -0.65236 c -0.07385,0 -0.110778,0.02872 -0.110778,0.08206 0,0.05744 0.03693,0.08616 0.110778,0.08616 h 0.484141 v 1.374468 h -0.656462 c -0.07385,0 -0.110778,0.02872 -0.110778,0.08206 0,0.05744 0.03693,0.08616 0.110778,0.08616 h 1.481143 c 0.07385,0 0.114881,-0.02872 0.114881,-0.08616 0,-0.05334 -0.03693,-0.08206 -0.114881,-0.08206 h -0.656462 z m -0.0082,-0.849298 h -0.242071 v 0.4267 h 0.242071 z"
         style="font-family:'Tlwg Typewriter';-inkscape-font-specification:'Tlwg Typewriter, Normal'"
         id="path64540" />
      <path
         d="m 53.589999,80.759808 h -0.389775 c -0.07385,0 -0.110778,0.02872 -0.110778,0.08206 0,0.05744 0.03693,0.08616 0.110778,0.08616 h 0.221556 v 0.968282 c -0.201041,-0.291305 -0.439009,-0.4267 -0.746726,-0.4267 -0.488244,0 -0.886224,0.410289 -0.886224,0.914944 0,0.504656 0.39798,0.919047 0.886224,0.919047 0.307717,0 0.55389,-0.143601 0.746726,-0.430803 v 0.365157 h 0.389775 c 0.07385,0 0.110778,-0.02872 0.110778,-0.08616 0,-0.05334 -0.03693,-0.08206 -0.110778,-0.08206 h -0.221556 z m -0.902636,0.878018 c 0.414392,0 0.734417,0.328231 0.734417,0.754932 0,0.410289 -0.328231,0.742623 -0.730314,0.742623 -0.410289,0 -0.734418,-0.332334 -0.734418,-0.750829 0,-0.414392 0.324129,-0.746726 0.730315,-0.746726 z"
         style="font-family:'Tlwg Typewriter';-inkscape-font-specification:'Tlwg Typewriter, Normal'"
         id="path64542" />
      <path
         d="m 56.125578,82.421478 c 0,-0.188733 -0.01231,-0.266688 -0.06975,-0.402083 -0.147704,-0.34054 -0.475936,-0.549787 -0.869813,-0.549787 -0.52517,0 -0.935459,0.381568 -0.935459,0.878018 0,0.533376 0.439009,0.955973 0.992899,0.955973 0.373363,0 0.86571,-0.192835 0.86571,-0.336437 0,-0.04513 -0.03693,-0.08206 -0.07796,-0.08206 -0.02051,0 -0.03693,0.0082 -0.06565,0.02872 -0.164116,0.131292 -0.463627,0.221556 -0.718006,0.221556 -0.443112,0 -0.771343,-0.283099 -0.828783,-0.713903 z M 54.418776,82.25326 c 0.07385,-0.377466 0.36926,-0.615434 0.76724,-0.615434 0.39798,0 0.701594,0.242071 0.76724,0.615434 z"
         style="font-family:'Tlwg Typewriter';-inkscape-font-specification:'Tlwg Typewriter, Normal'"
         id="path64544" />
    </g>
    <g
       aria-label="flip_side"
       id="text38327-9-7-8"
       style="font-size:4.10289px;line-height:1.25;stroke:#121be5;stroke-width:0.102572">
      <path
         d="m 79.459507,63.156964 c 0.04923,0 0.08616,-0.03282 0.08616,-0.08206 0,-0.04103 -0.02462,-0.06975 -0.07385,-0.08206 -0.131293,-0.02462 -0.414392,-0.05334 -0.570302,-0.05334 -0.36926,0 -0.631845,0.217454 -0.631845,0.516965 v 0.250276 h -0.361055 c -0.07385,0 -0.110778,0.02872 -0.110778,0.08206 0,0.05744 0.03693,0.08616 0.110778,0.08616 h 0.361055 v 1.374468 h -0.402083 c -0.07385,0 -0.110779,0.02872 -0.110779,0.08206 0,0.05744 0.03693,0.08616 0.110779,0.08616 h 1.300616 c 0.06975,0 0.110778,-0.02872 0.110778,-0.08616 0,-0.05334 -0.03693,-0.08206 -0.110778,-0.08206 h -0.730315 v -1.374468 h 0.775446 c 0.07385,0 0.110778,-0.02872 0.110778,-0.08616 0,-0.05334 -0.03693,-0.08206 -0.110778,-0.08206 h -0.775446 v -0.250276 c 0,-0.205145 0.18463,-0.348746 0.455421,-0.348746 0.205145,0 0.537479,0.04924 0.566199,0.04924 z"
         style="font-family:'Tlwg Typewriter';-inkscape-font-specification:'Tlwg Typewriter, Normal'"
         id="path64547" />
      <path
         d="M 81.100657,62.93951 H 80.4524 c -0.07385,0 -0.110778,0.02872 -0.110778,0.08206 0,0.05744 0.03693,0.08616 0.110778,0.08616 h 0.480038 v 2.141708 h -0.656462 c -0.07385,0 -0.110778,0.02872 -0.110778,0.08206 0,0.05744 0.03693,0.08616 0.110778,0.08616 h 1.481143 c 0.07385,0 0.114881,-0.02872 0.114881,-0.08616 0,-0.05334 -0.03693,-0.08206 -0.114881,-0.08206 h -0.656462 z"
         style="font-family:'Tlwg Typewriter';-inkscape-font-specification:'Tlwg Typewriter, Normal'"
         id="path64549" />
      <path
         d="m 83.562385,63.706751 h -0.65236 c -0.07385,0 -0.110778,0.02872 -0.110778,0.08206 0,0.05744 0.03693,0.08616 0.110778,0.08616 h 0.484141 v 1.374468 h -0.656462 c -0.07385,0 -0.110778,0.02872 -0.110778,0.08206 0,0.05744 0.03693,0.08616 0.110778,0.08616 h 1.481143 c 0.07385,0 0.114881,-0.02872 0.114881,-0.08616 0,-0.05334 -0.03693,-0.08206 -0.114881,-0.08206 h -0.656462 z m -0.0082,-0.849298 h -0.242071 v 0.4267 h 0.242071 z"
         style="font-family:'Tlwg Typewriter';-inkscape-font-specification:'Tlwg Typewriter, Normal'"
         id="path64551" />
      <path
         d="m 86.032318,63.817529 c 0.410289,0 0.730314,0.332334 0.730314,0.759034 0,0.402084 -0.332334,0.738521 -0.730314,0.738521 -0.406186,0 -0.730314,-0.336437 -0.730314,-0.750829 0,-0.414392 0.324128,-0.746726 0.730314,-0.746726 z m -0.730314,1.239073 c 0.192835,0.283099 0.439009,0.4267 0.73852,0.4267 0.492347,0 0.890327,-0.414392 0.890327,-0.927253 0,-0.508758 -0.389775,-0.906739 -0.890327,-0.906739 -0.303614,0 -0.533376,0.12719 -0.73852,0.422598 v -0.365157 h -0.389775 c -0.07385,0 -0.110778,0.02872 -0.110778,0.08206 0,0.05744 0.03693,0.08616 0.110778,0.08616 h 0.221556 v 2.137606 h -0.221556 c -0.07385,0 -0.110778,0.02872 -0.110778,0.08206 0,0.05744 0.03693,0.08616 0.110778,0.08616 h 0.791858 c 0.07385,0 0.110778,-0.02872 0.110778,-0.08616 0,-0.05334 -0.03693,-0.08206 -0.110778,-0.08206 h -0.402083 z"
         style="font-family:'Tlwg Typewriter';-inkscape-font-specification:'Tlwg Typewriter, Normal'"
         id="path64553" />
      <path
         d="m 89.683884,65.725373 h -2.560203 v 0.205144 h 2.560203 z"
         style="font-family:'Tlwg Typewriter';-inkscape-font-specification:'Tlwg Typewriter, Normal'"
         id="path64555" />
      <path
         d="m 91.407092,63.838043 c -0.143601,-0.127189 -0.328231,-0.188733 -0.562096,-0.188733 -0.402083,0 -0.701594,0.196939 -0.701594,0.463627 0,0.12719 0.07385,0.250276 0.188733,0.324128 0.114881,0.06975 0.229762,0.09847 0.533376,0.131293 0.225659,0.02462 0.336437,0.05334 0.443112,0.110778 0.110778,0.06154 0.180527,0.164115 0.180527,0.258482 0,0.217453 -0.270791,0.377466 -0.631845,0.377466 -0.348746,0 -0.631845,-0.151807 -0.631845,-0.34054 v -0.02872 c 0,-0.05334 -0.03282,-0.09026 -0.08206,-0.09026 -0.05744,0 -0.08616,0.03693 -0.08616,0.110778 v 0.34054 c 0,0.07385 0.02872,0.110778 0.08616,0.110778 0.05334,0 0.08206,-0.03693 0.08206,-0.110778 v -0.04513 c 0.172321,0.151807 0.377466,0.221556 0.644153,0.221556 0.463627,0 0.804167,-0.229762 0.804167,-0.541581 0,-0.143601 -0.07795,-0.2831 -0.205145,-0.36926 -0.131292,-0.08616 -0.283099,-0.131293 -0.533375,-0.160013 -0.361055,-0.03693 -0.385672,-0.04513 -0.475936,-0.102572 -0.08616,-0.04923 -0.131292,-0.118984 -0.131292,-0.18463 0,-0.176425 0.229762,-0.307717 0.533376,-0.307717 0.311819,0 0.52517,0.118984 0.545684,0.303614 0.0082,0.06565 0.03693,0.09437 0.08616,0.09437 0.05334,0 0.08206,-0.03693 0.08206,-0.110778 v -0.283099 c 0,-0.07796 -0.02872,-0.114881 -0.08206,-0.114881 -0.05334,0 -0.08616,0.04513 -0.08616,0.114881 z"
         style="font-family:'Tlwg Typewriter';-inkscape-font-specification:'Tlwg Typewriter, Normal'"
         id="path64557" />
      <path
         d="m 93.409296,63.706751 h -0.65236 c -0.07385,0 -0.110778,0.02872 -0.110778,0.08206 0,0.05744 0.03693,0.08616 0.110778,0.08616 h 0.484141 v 1.374468 h -0.656462 c -0.07385,0 -0.110778,0.02872 -0.110778,0.08206 0,0.05744 0.03693,0.08616 0.110778,0.08616 h 1.481143 c 0.07385,0 0.114881,-0.02872 0.114881,-0.08616 0,-0.05334 -0.03693,-0.08206 -0.114881,-0.08206 h -0.656462 z m -0.0082,-0.849298 h -0.242071 v 0.4267 h 0.242071 z"
         style="font-family:'Tlwg Typewriter';-inkscape-font-specification:'Tlwg Typewriter, Normal'"
         id="path64559" />
      <path
         d="m 96.617751,62.93951 h -0.389775 c -0.07385,0 -0.110778,0.02872 -0.110778,0.08206 0,0.05744 0.03693,0.08616 0.110778,0.08616 h 0.221556 v 0.968282 C 96.24849,63.784706 96.010523,63.64931 95.702806,63.64931 c -0.488244,0 -0.886224,0.410289 -0.886224,0.914945 0,0.504655 0.39798,0.919047 0.886224,0.919047 0.307717,0 0.55389,-0.143601 0.746726,-0.430803 v 0.365157 h 0.389775 c 0.07385,0 0.110778,-0.02872 0.110778,-0.08616 0,-0.05334 -0.03693,-0.08206 -0.110778,-0.08206 h -0.221556 z m -0.902636,0.878019 c 0.414392,0 0.734417,0.328231 0.734417,0.754932 0,0.410289 -0.328231,0.742623 -0.730314,0.742623 -0.410289,0 -0.734418,-0.332334 -0.734418,-0.750829 0,-0.414392 0.324129,-0.746726 0.730315,-0.746726 z"
         style="font-family:'Tlwg Typewriter';-inkscape-font-specification:'Tlwg Typewriter, Normal'"
         id="path64561" />
      <path
         d="m 99.15333,64.601181 c 0,-0.188733 -0.01231,-0.266688 -0.06975,-0.402083 -0.147704,-0.34054 -0.475936,-0.549788 -0.869813,-0.549788 -0.52517,0 -0.935459,0.381569 -0.935459,0.878019 0,0.533376 0.439009,0.955973 0.992899,0.955973 0.373363,0 0.86571,-0.192836 0.86571,-0.336437 0,-0.04513 -0.03693,-0.08206 -0.07795,-0.08206 -0.02051,0 -0.03693,0.0082 -0.06565,0.02872 -0.164116,0.131292 -0.463627,0.221556 -0.718006,0.221556 -0.443112,0 -0.771343,-0.2831 -0.828784,-0.713903 z m -1.706803,-0.168219 c 0.07385,-0.377466 0.369261,-0.615433 0.767241,-0.615433 0.39798,0 0.701594,0.24207 0.76724,0.615433 z"
         style="font-family:'Tlwg Typewriter';-inkscape-font-specification:'Tlwg Typewriter, Normal'"
         id="path64563" />
    </g>
    <g
       aria-label="flip_side"
       id="text38327-9-5"
       style="font-size:4.10289px;line-height:1.25;stroke:#121be5;stroke-width:0.102572">
      <path
         d="m 4.029675,26.011164 c 0.049235,0 0.086161,-0.03282 0.086161,-0.08206 0,-0.04103 -0.024617,-0.06975 -0.073852,-0.08206 -0.1312924,-0.02462 -0.4143918,-0.05334 -0.5703017,-0.05334 -0.3692601,0 -0.631845,0.217453 -0.631845,0.516964 v 0.250276 H 2.4787825 c -0.073852,0 -0.110778,0.02872 -0.110778,0.08206 0,0.05744 0.036926,0.08616 0.110778,0.08616 h 0.3610544 v 1.374468 H 2.4377536 c -0.073852,0 -0.110778,0.02872 -0.110778,0.08206 0,0.05744 0.036926,0.08616 0.110778,0.08616 h 1.3006162 c 0.069749,0 0.110778,-0.02872 0.110778,-0.08616 0,-0.05334 -0.036926,-0.08206 -0.110778,-0.08206 H 3.0080554 V 26.72917 h 0.7754462 c 0.073852,0 0.110778,-0.02872 0.110778,-0.08616 0,-0.05334 -0.036926,-0.08206 -0.110778,-0.08206 H 3.0080554 v -0.250276 c 0,-0.205145 0.18463,-0.348746 0.4554208,-0.348746 0.2051445,0 0.5374785,0.04923 0.5661988,0.04923 z"
         style="font-family:'Tlwg Typewriter';-inkscape-font-specification:'Tlwg Typewriter, Normal'"
         id="path64566" />
      <path
         d="M 5.6708248,25.793711 H 5.0225682 c -0.073852,0 -0.110778,0.02872 -0.110778,0.08206 0,0.05744 0.036926,0.08616 0.110778,0.08616 H 5.5026063 V 28.10364 H 4.8461439 c -0.073852,0 -0.110778,0.02872 -0.110778,0.08206 0,0.05744 0.036926,0.08616 0.110778,0.08616 h 1.4811433 c 0.073852,0 0.114881,-0.02872 0.114881,-0.08616 0,-0.05334 -0.036926,-0.08206 -0.114881,-0.08206 H 5.6708248 Z"
         style="font-family:'Tlwg Typewriter';-inkscape-font-specification:'Tlwg Typewriter, Normal'"
         id="path64568" />
      <path
         d="M 8.1325527,26.560951 H 7.4801932 c -0.073852,0 -0.1107781,0.02872 -0.1107781,0.08206 0,0.05744 0.036926,0.08616 0.1107781,0.08616 h 0.484141 v 1.374468 H 7.3078718 c -0.073852,0 -0.110778,0.02872 -0.110778,0.08206 0,0.05744 0.036926,0.08616 0.110778,0.08616 h 1.4811433 c 0.073852,0 0.1148809,-0.02872 0.1148809,-0.08616 0,-0.05334 -0.036926,-0.08206 -0.1148809,-0.08206 H 8.1325527 Z m -0.00821,-0.849298 H 7.8822764 v 0.426701 h 0.2420705 z"
         style="font-family:'Tlwg Typewriter';-inkscape-font-specification:'Tlwg Typewriter, Normal'"
         id="path64570" />
      <path
         d="m 10.602486,26.671729 c 0.410289,0 0.730315,0.332334 0.730315,0.759035 0,0.402083 -0.332335,0.73852 -0.730315,0.73852 -0.406186,0 -0.7303143,-0.336437 -0.7303143,-0.750829 0,-0.414392 0.3241283,-0.746726 0.7303143,-0.746726 z m -0.7303143,1.239073 c 0.1928353,0.283099 0.4390093,0.426701 0.7385203,0.426701 0.492347,0 0.890327,-0.414392 0.890327,-0.927254 0,-0.508758 -0.389775,-0.906738 -0.890327,-0.906738 -0.303614,0 -0.533376,0.127189 -0.7385203,0.422597 V 26.560951 H 9.4823971 c -0.073852,0 -0.110778,0.02872 -0.110778,0.08206 0,0.05744 0.036926,0.08616 0.110778,0.08616 h 0.2215561 v 2.137605 H 9.4823971 c -0.073852,0 -0.110778,0.02872 -0.110778,0.08206 0,0.05744 0.036926,0.08616 0.110778,0.08616 h 0.7918579 c 0.07385,0 0.110778,-0.02872 0.110778,-0.08616 0,-0.05334 -0.03693,-0.08206 -0.110778,-0.08206 H 9.8721717 Z"
         style="font-family:'Tlwg Typewriter';-inkscape-font-specification:'Tlwg Typewriter, Normal'"
         id="path64572" />
      <path
         d="m 14.254052,28.579573 h -2.560203 v 0.205145 h 2.560203 z"
         style="font-family:'Tlwg Typewriter';-inkscape-font-specification:'Tlwg Typewriter, Normal'"
         id="path64574" />
      <path
         d="m 15.97726,26.692244 c -0.143601,-0.12719 -0.328231,-0.188733 -0.562096,-0.188733 -0.402083,0 -0.701594,0.196938 -0.701594,0.463626 0,0.12719 0.07385,0.250277 0.188733,0.324129 0.114881,0.06975 0.229762,0.09847 0.533376,0.131292 0.225659,0.02462 0.336437,0.05334 0.443112,0.110778 0.110778,0.06154 0.180527,0.164116 0.180527,0.258482 0,0.217453 -0.270791,0.377466 -0.631845,0.377466 -0.348746,0 -0.631845,-0.151807 -0.631845,-0.34054 v -0.02872 c 0,-0.05334 -0.03282,-0.09026 -0.08206,-0.09026 -0.05744,0 -0.08616,0.03693 -0.08616,0.110778 v 0.34054 c 0,0.07385 0.02872,0.110778 0.08616,0.110778 0.05334,0 0.08206,-0.03693 0.08206,-0.110778 v -0.04513 c 0.172321,0.151807 0.377466,0.221557 0.644154,0.221557 0.463626,0 0.804166,-0.229762 0.804166,-0.541582 0,-0.143601 -0.07795,-0.283099 -0.205144,-0.36926 -0.131293,-0.08616 -0.2831,-0.131293 -0.533376,-0.160013 -0.361054,-0.03693 -0.385672,-0.04513 -0.475935,-0.102572 -0.08616,-0.04924 -0.131293,-0.118984 -0.131293,-0.18463 0,-0.176424 0.229762,-0.307717 0.533376,-0.307717 0.311819,0 0.52517,0.118984 0.545684,0.303614 0.0082,0.06565 0.03693,0.09437 0.08616,0.09437 0.05334,0 0.08206,-0.03693 0.08206,-0.110778 v -0.2831 c 0,-0.07795 -0.02872,-0.114881 -0.08206,-0.114881 -0.05334,0 -0.08616,0.04513 -0.08616,0.114881 z"
         style="font-family:'Tlwg Typewriter';-inkscape-font-specification:'Tlwg Typewriter, Normal'"
         id="path64576" />
      <path
         d="m 17.979464,26.560951 h -0.65236 c -0.07385,0 -0.110778,0.02872 -0.110778,0.08206 0,0.05744 0.03693,0.08616 0.110778,0.08616 h 0.484141 v 1.374468 h -0.656462 c -0.07385,0 -0.110778,0.02872 -0.110778,0.08206 0,0.05744 0.03693,0.08616 0.110778,0.08616 h 1.481143 c 0.07385,0 0.114881,-0.02872 0.114881,-0.08616 0,-0.05334 -0.03693,-0.08206 -0.114881,-0.08206 h -0.656462 z m -0.0082,-0.849298 h -0.242071 v 0.426701 h 0.242071 z"
         style="font-family:'Tlwg Typewriter';-inkscape-font-specification:'Tlwg Typewriter, Normal'"
         id="path64578" />
      <path
         d="m 21.187919,25.793711 h -0.389775 c -0.07385,0 -0.110778,0.02872 -0.110778,0.08206 0,0.05744 0.03693,0.08616 0.110778,0.08616 H 21.0197 v 0.968282 c -0.201041,-0.291305 -0.439009,-0.4267 -0.746726,-0.4267 -0.488244,0 -0.886224,0.410289 -0.886224,0.914944 0,0.504656 0.39798,0.919048 0.886224,0.919048 0.307717,0 0.55389,-0.143602 0.746726,-0.430804 v 0.365157 h 0.389775 c 0.07385,0 0.110778,-0.02872 0.110778,-0.08616 0,-0.05334 -0.03693,-0.08206 -0.110778,-0.08206 h -0.221556 z m -0.902636,0.878018 c 0.414392,0 0.734417,0.328231 0.734417,0.754932 0,0.410289 -0.328231,0.742623 -0.730314,0.742623 -0.410289,0 -0.734418,-0.332334 -0.734418,-0.750829 0,-0.414392 0.324129,-0.746726 0.730315,-0.746726 z"
         style="font-family:'Tlwg Typewriter';-inkscape-font-specification:'Tlwg Typewriter, Normal'"
         id="path64580" />
      <path
         d="m 23.723498,27.455381 c 0,-0.188733 -0.01231,-0.266688 -0.06975,-0.402083 -0.147704,-0.34054 -0.475936,-0.549787 -0.869813,-0.549787 -0.52517,0 -0.935459,0.381568 -0.935459,0.878018 0,0.533376 0.439009,0.955974 0.992899,0.955974 0.373363,0 0.86571,-0.192836 0.86571,-0.336437 0,-0.04513 -0.03693,-0.08206 -0.07795,-0.08206 -0.02051,0 -0.03693,0.0082 -0.06565,0.02872 -0.164115,0.131292 -0.463626,0.221556 -0.718006,0.221556 -0.443112,0 -0.771343,-0.283099 -0.828783,-0.713903 z m -1.706802,-0.168218 c 0.07385,-0.377466 0.36926,-0.615434 0.76724,-0.615434 0.39798,0 0.701594,0.242071 0.76724,0.615434 z"
         style="font-family:'Tlwg Typewriter';-inkscape-font-specification:'Tlwg Typewriter, Normal'"
         id="path64582" />
    </g>
    <path
       style="fill:none;stroke:#000000;stroke-width:0.589863;stroke-linecap:round;stroke-linejoin:miter;stroke-miterlimit:4;stroke-dasharray:none;stroke-opacity:1;marker-end:url(#Arrow1Mend);paint-order:markers stroke fill"
       d="m 27.133198,32.561457 c -4.553038,-0.03542 -9.106302,-0.07084 -11.647742,-1.218164 -2.541439,-1.147325 -3.070869,-3.406724 -2.13556,-5.91343 0.935308,-2.506706 3.335344,-5.26032 6.12396,-5.012965 2.788616,0.247355 5.965398,3.495395 9.142024,6.743275"
       id="path53004" />
    <path
       style="fill:none;stroke:#000000;stroke-width:0.589863;stroke-linecap:round;stroke-linejoin:miter;stroke-miterlimit:4;stroke-dasharray:none;stroke-opacity:1;marker-end:url(#Arrow1Mend-1);paint-order:markers stroke fill"
       d="m 33.60417,24.556046 c -1.308363,-4.361147 -2.616791,-8.72251 -2.269653,-11.489234 0.347138,-2.766724 2.350058,-3.9386823 5.021092,-3.7838997 2.671034,0.1547826 6.009796,1.6364147 6.5955,4.3740257 0.585703,2.73761 -1.581501,6.730721 -3.748598,10.723636"
       id="path53004-4" />
    <g
       aria-label="flip_diag"
       id="text38327-03-2"
       style="font-size:4.10289px;line-height:1.25;stroke:#e81818;stroke-width:0.102572"
       transform="rotate(-0.54077494,8693.6056,-4471.2252)">
      <path
         d="m 33.74778,13.689659 c 0.04923,0 0.08616,-0.03282 0.08616,-0.08206 0,-0.04103 -0.02462,-0.06975 -0.07385,-0.08206 -0.131292,-0.02462 -0.414392,-0.05334 -0.570301,-0.05334 -0.36926,0 -0.631845,0.217453 -0.631845,0.516964 v 0.250277 h -0.361055 c -0.07385,0 -0.110778,0.02872 -0.110778,0.08206 0,0.05744 0.03693,0.08616 0.110778,0.08616 h 0.361055 v 1.374468 H 32.15586 c -0.07385,0 -0.110778,0.02872 -0.110778,0.08206 0,0.05744 0.03693,0.08616 0.110778,0.08616 h 1.300617 c 0.06975,0 0.110778,-0.02872 0.110778,-0.08616 0,-0.05334 -0.03693,-0.08206 -0.110778,-0.08206 H 32.72616 V 14.40766 h 0.775446 c 0.07385,0 0.110778,-0.02872 0.110778,-0.08616 0,-0.05334 -0.03693,-0.08206 -0.110778,-0.08206 H 32.72616 v -0.25027 c 0,-0.205144 0.18463,-0.348745 0.455421,-0.348745 0.205144,0 0.537478,0.04923 0.566199,0.04923 z"
         style="font-family:'Tlwg Typewriter';-inkscape-font-specification:'Tlwg Typewriter, Normal'"
         id="path64458-0" />
      <path
         d="m 35.38893,13.472206 h -0.648257 c -0.07385,0 -0.110778,0.02872 -0.110778,0.08206 0,0.05744 0.03693,0.08616 0.110778,0.08616 h 0.480038 v 2.141708 h -0.656462 c -0.07385,0 -0.110778,0.02872 -0.110778,0.08206 0,0.05744 0.03693,0.08616 0.110778,0.08616 h 1.481143 c 0.07385,0 0.114881,-0.02872 0.114881,-0.08616 0,-0.05334 -0.03693,-0.08206 -0.114881,-0.08206 H 35.38893 Z"
         style="font-family:'Tlwg Typewriter';-inkscape-font-specification:'Tlwg Typewriter, Normal'"
         id="path64460-9" />
      <path
         d="m 37.850657,14.239447 h -0.652359 c -0.07385,0 -0.110778,0.02872 -0.110778,0.08206 0,0.05744 0.03693,0.08616 0.110778,0.08616 h 0.484141 v 1.374468 h -0.656462 c -0.07385,0 -0.110779,0.02872 -0.110779,0.08206 0,0.05744 0.03693,0.08616 0.110779,0.08616 h 1.481143 c 0.07385,0 0.114881,-0.02872 0.114881,-0.08616 0,-0.05334 -0.03693,-0.08206 -0.114881,-0.08206 h -0.656463 z m -0.0082,-0.849299 h -0.242071 v 0.426701 h 0.242071 z"
         style="font-family:'Tlwg Typewriter';-inkscape-font-specification:'Tlwg Typewriter, Normal'"
         id="path64462-4" />
      <path
         d="m 40.320591,14.350225 c 0.410289,0 0.730314,0.332334 0.730314,0.759034 0,0.402083 -0.332334,0.73852 -0.730314,0.73852 -0.406186,0 -0.730315,-0.336437 -0.730315,-0.750828 0,-0.414392 0.324129,-0.746726 0.730315,-0.746726 z m -0.730315,1.239072 c 0.192836,0.2831 0.43901,0.426701 0.738521,0.426701 0.492346,0 0.890327,-0.414392 0.890327,-0.927253 0,-0.508759 -0.389775,-0.906739 -0.890327,-0.906739 -0.303614,0 -0.533376,0.12719 -0.738521,0.422598 v -0.365157 h -0.389774 c -0.07385,0 -0.110778,0.02872 -0.110778,0.08206 0,0.05744 0.03693,0.08616 0.110778,0.08616 h 0.221556 v 2.137606 h -0.221556 c -0.07385,0 -0.110778,0.02872 -0.110778,0.08206 0,0.05744 0.03693,0.08616 0.110778,0.08616 h 0.791858 c 0.07385,0 0.110778,-0.02872 0.110778,-0.08616 0,-0.05334 -0.03693,-0.08206 -0.110778,-0.08206 h -0.402084 z"
         style="font-family:'Tlwg Typewriter';-inkscape-font-specification:'Tlwg Typewriter, Normal'"
         id="path64464-8" />
      <path
         d="m 43.972157,16.258068 h -2.560203 v 0.205145 h 2.560203 z"
         style="font-family:'Tlwg Typewriter';-inkscape-font-specification:'Tlwg Typewriter, Normal'"
         id="path64466-4" />
      <path
         d="m 45.982567,13.472206 h -0.389774 c -0.07385,0 -0.110778,0.02872 -0.110778,0.08206 0,0.05744 0.03693,0.08616 0.110778,0.08616 h 0.221556 v 0.968282 c -0.201042,-0.291306 -0.43901,-0.426701 -0.746726,-0.426701 -0.488244,0 -0.886225,0.410289 -0.886225,0.914945 0,0.504655 0.397981,0.919047 0.886225,0.919047 0.307716,0 0.55389,-0.143601 0.746726,-0.430803 v 0.365157 h 0.389774 c 0.07385,0 0.110778,-0.02872 0.110778,-0.08616 0,-0.05334 -0.03693,-0.08206 -0.110778,-0.08206 h -0.221556 z m -0.902636,0.878019 c 0.414392,0 0.734418,0.328231 0.734418,0.754931 0,0.410289 -0.328231,0.742623 -0.730315,0.742623 -0.410289,0 -0.734417,-0.332334 -0.734417,-0.750828 0,-0.414392 0.324128,-0.746726 0.730314,-0.746726 z"
         style="font-family:'Tlwg Typewriter';-inkscape-font-specification:'Tlwg Typewriter, Normal'"
         id="path64468-9" />
      <path
         d="m 47.697568,14.239447 h -0.652359 c -0.07385,0 -0.110778,0.02872 -0.110778,0.08206 0,0.05744 0.03693,0.08616 0.110778,0.08616 h 0.484141 v 1.374468 h -0.656463 c -0.07385,0 -0.110778,0.02872 -0.110778,0.08206 0,0.05744 0.03693,0.08616 0.110778,0.08616 h 1.481144 c 0.07385,0 0.114881,-0.02872 0.114881,-0.08616 0,-0.05334 -0.03693,-0.08206 -0.114881,-0.08206 h -0.656463 z m -0.0082,-0.849299 h -0.242071 v 0.426701 h 0.242071 z"
         style="font-family:'Tlwg Typewriter';-inkscape-font-specification:'Tlwg Typewriter, Normal'"
         id="path64470-4" />
      <path
         d="m 50.565484,15.950352 h 0.389774 c 0.07385,0 0.110778,-0.02872 0.110778,-0.08616 0,-0.05334 -0.03693,-0.08206 -0.110778,-0.08206 h -0.221556 v -1.095471 c 0,-0.291306 -0.278997,-0.504656 -0.660565,-0.504656 -0.151807,0 -0.418495,0.05334 -0.644154,0.131293 -0.04513,0.01641 -0.06975,0.04513 -0.06975,0.08616 0,0.04513 0.03693,0.08206 0.07795,0.08206 0.0082,0 0.02462,-0.0041 0.04103,-0.0082 0.320025,-0.09847 0.434906,-0.123086 0.58261,-0.123086 0.299511,0 0.504656,0.135395 0.504656,0.336437 v 0.291305 c -0.242071,-0.06565 -0.369261,-0.08616 -0.557994,-0.08616 -0.512861,0 -0.865709,0.242071 -0.865709,0.599022 0,0.31182 0.258482,0.52517 0.640051,0.52517 0.287202,0 0.533375,-0.106675 0.783652,-0.34054 z m 0,-0.459524 c -0.274894,0.258482 -0.49645,0.356951 -0.787755,0.356951 -0.2831,0 -0.46773,-0.139498 -0.46773,-0.352848 0,-0.258482 0.295408,-0.434906 0.730315,-0.434906 0.180527,0 0.377465,0.02462 0.52517,0.06154 z"
         style="font-family:'Tlwg Typewriter';-inkscape-font-specification:'Tlwg Typewriter, Normal'"
         id="path64472-8" />
      <path
         d="m 53.113371,14.604604 c -0.18463,-0.291305 -0.402083,-0.422598 -0.701594,-0.422598 -0.463626,0 -0.845195,0.410289 -0.845195,0.914945 0,0.504655 0.381569,0.919047 0.845195,0.919047 0.295408,0 0.516964,-0.135395 0.701594,-0.422598 v 0.447215 c 0,0.278997 -0.221556,0.504656 -0.500552,0.504656 h -0.475935 c -0.07385,0 -0.110779,0.02872 -0.110779,0.08206 0,0.05744 0.03693,0.08616 0.110779,0.08616 h 0.467729 c 0.381569,0 0.676977,-0.303614 0.676977,-0.648256 v -1.657568 h 0.221556 c 0.07385,0 0.110778,-0.02872 0.110778,-0.08616 0,-0.05334 -0.03693,-0.08206 -0.110778,-0.08206 h -0.389775 z m -0.689285,-0.254379 c 0.389774,0 0.689285,0.332334 0.689285,0.754931 0,0.406186 -0.307716,0.742623 -0.689285,0.742623 -0.381569,0 -0.689286,-0.336437 -0.689286,-0.750828 0,-0.410289 0.303614,-0.746726 0.689286,-0.746726 z"
         style="font-family:'Tlwg Typewriter';-inkscape-font-specification:'Tlwg Typewriter, Normal'"
         id="path64474-9" />
    </g>
    <path
       style="fill:none;stroke:#000000;stroke-width:0.589863;stroke-linecap:round;stroke-linejoin:miter;stroke-miterlimit:4;stroke-dasharray:none;stroke-opacity:1;marker-end:url(#Arrow1Mend-1-9);paint-order:markers stroke fill"
       d="m 79.934397,80.635456 c 4.4022,1.162774 8.804619,2.325606 10.982402,4.067023 2.177781,1.741417 2.130704,4.061538 0.603298,6.258218 -1.527409,2.196681 -4.535039,4.269536 -7.17534,3.338747 -2.640301,-0.93079 -4.912945,-4.864847 -7.185478,-8.79871"
       id="path53004-4-0" />
    <path
       style="fill:none;stroke:#000000;stroke-width:0.563974;stroke-linecap:round;stroke-linejoin:miter;stroke-miterlimit:4;stroke-dasharray:none;stroke-opacity:1;marker-start:url(#Arrow1Mstart);marker-end:url(#Arrow1Mend-1);paint-order:markers stroke fill"
       d="m 28.654227,38.032763 c -3.339172,3.766198 -6.678339,7.53239 -7.878304,11.184117 -1.199965,3.651728 -0.260837,7.188613 0.678244,10.725319"
       id="path53591" />
    <path
       style="opacity:1;mix-blend-mode:normal;fill:none;stroke:#000000;stroke-width:0.589863;stroke-linecap:round;stroke-linejoin:miter;stroke-miterlimit:4;stroke-dasharray:none;stroke-opacity:1;marker-end:url(#Arrow1Mend);paint-order:markers stroke fill"
       d="m 43.008888,31.078151 c 7.201484,-1.023902 14.40278,-2.047777 20.616026,-1.023884 6.213245,1.023892 11.438154,4.095247 16.662905,7.166509"
       id="path53821" />
    <path
       style="fill:none;stroke:#000000;stroke-width:0.57473;stroke-linecap:round;stroke-linejoin:miter;stroke-miterlimit:4;stroke-dasharray:none;stroke-opacity:1;marker-start:url(#Arrow1Mstart);marker-end:url(#Arrow1Mend);paint-order:markers stroke fill"
       d="m 37.286007,41.001032 c 1.903615,7.040902 3.80716,14.081546 8.189488,19.736881 4.382328,5.655334 11.242955,9.925265 18.103452,14.195115"
       id="path53971" />
    <path
       style="fill:none;stroke:#000000;stroke-width:0.633289;stroke-linecap:round;stroke-linejoin:miter;stroke-miterlimit:4;stroke-dasharray:none;stroke-opacity:1;marker-start:url(#Arrow1Mstart);marker-end:url(#Arrow1Mend);paint-order:markers stroke fill"
       d="m 32.139147,73.635033 c 4.683828,2.559317 9.367377,5.118482 14.506853,6.03236 5.139476,0.913877 10.734767,0.182664 16.330009,-0.548544"
       id="path54433" />
    <path
       style="fill:none;stroke:#000000;stroke-width:0.529112;stroke-linecap:round;stroke-linejoin:miter;stroke-miterlimit:4;stroke-dasharray:none;stroke-opacity:1;marker-end:url(#Arrow1Mend);paint-order:markers stroke fill"
       d="m 79.744859,75.701274 c 3.060795,-2.515121 6.12158,-5.030234 7.515591,-9.15019 1.39401,-4.119957 1.121257,-9.844755 0.848488,-15.569887"
       id="path54627" />
    <path
       style="fill:none;stroke:#000000;stroke-width:0.589863;stroke-linecap:round;stroke-linejoin:miter;stroke-miterlimit:4;stroke-dasharray:none;stroke-opacity:1;marker-end:url(#Arrow1Mend);paint-order:markers stroke fill"
       d="M 29.64163,63.264579 C 35.007273,57.368874 40.372931,51.473152 48.563315,48.083966 56.7537,44.694779 67.768159,43.812189 78.782631,42.929598"
       id="path54777" />
  </g>
</svg>
